<svg width="130" height="139" viewBox="0 0 130 139" fill="none" xmlns="http://www.w3.org/2000/svg">
<path fill-rule="evenodd" clip-rule="evenodd" d="M86.4873 68.121V96.0635C110.32 96.0635 129.64 76.8922 129.64 53.2432H103.02C100.824 60.841 94.4289 66.6772 86.4873 68.121Z" fill="#FF4E59"/>
<path fill-rule="evenodd" clip-rule="evenodd" d="M33.1538 53.2354H62.2662C64.2262 60.0216 69.5361 65.403 76.3064 67.5051V96.0557H33.1538V53.2354ZM76.3064 96.0557H33.1538C33.1538 119.705 52.4734 138.876 76.3058 138.876L76.3064 96.0557Z" fill="#161B2D"/>
<path fill-rule="evenodd" clip-rule="evenodd" d="M86.4862 0.319336H0.182129C0.182129 23.9678 19.5025 43.1392 43.3345 43.1394H61.8889C63.8864 33.5828 72.419 26.4011 82.6421 26.4011C92.8648 26.4011 101.397 33.5828 103.395 43.1394H129.639C129.639 19.4904 110.319 0.319336 86.4862 0.319336Z" fill="#161B2D"/>
</svg>
