<svg width="250" height="65" viewBox="0 0 250 65" fill="none" xmlns="http://www.w3.org/2000/svg">
<path d="M240.754 2.32715C239.352 2.32715 237.981 2.74286 236.816 3.5217C235.65 4.30055 234.742 5.40756 234.205 6.70273C233.669 7.99791 233.528 9.42308 233.802 10.798C234.075 12.173 234.75 13.436 235.742 14.4272C236.733 15.4185 237.996 16.0936 239.371 16.3671C240.746 16.6406 242.171 16.5002 243.466 15.9637C244.761 15.4273 245.868 14.5188 246.647 13.3531C247.426 12.1875 247.842 10.8171 247.842 9.41522C247.842 7.53534 247.095 5.73247 245.766 4.4032C244.436 3.07392 242.634 2.32715 240.754 2.32715ZM240.754 15.0857C239.632 15.0857 238.536 14.7531 237.603 14.13C236.671 13.507 235.944 12.6213 235.515 11.5852C235.086 10.5491 234.973 9.40893 235.192 8.30897C235.411 7.20901 235.951 6.19863 236.744 5.4056C237.537 4.61257 238.547 4.07251 239.647 3.85372C240.747 3.63492 241.887 3.74722 242.924 4.1764C243.96 4.60558 244.845 5.33238 245.468 6.26488C246.092 7.19738 246.424 8.29371 246.424 9.41522C246.424 10.9191 245.827 12.3614 244.763 13.4248C243.7 14.4883 242.258 15.0857 240.754 15.0857Z" fill="#161B2D"/>
<path d="M243.59 7.99703C243.59 7.43306 243.366 6.8922 242.967 6.49342C242.568 6.09464 242.027 5.87061 241.463 5.87061H237.919V12.9587H239.337V10.1234H240.372L242.264 12.9587H243.966L242.016 10.0384C242.466 9.91734 242.863 9.65206 243.148 9.28329C243.432 8.91451 243.587 8.46263 243.59 7.99703ZM241.463 8.70583H239.337V7.28822H241.463C241.651 7.28822 241.832 7.3629 241.965 7.49582C242.098 7.62875 242.172 7.80904 242.172 7.99703C242.172 8.18501 242.098 8.3653 241.965 8.49823C241.832 8.63116 241.651 8.70583 241.463 8.70583Z" fill="#161B2D"/>
<g clip-path="url(#clip0_1767_1698)">
<path fill-rule="evenodd" clip-rule="evenodd" d="M32.6045 36.0619V46.4566C41.4249 46.4566 48.5752 39.3248 48.5752 30.5273H38.7231C37.9105 33.3537 35.5437 35.5248 32.6045 36.0619Z" fill="#FF4E59"/>
<path fill-rule="evenodd" clip-rule="evenodd" d="M12.8657 30.5244H23.6402C24.3656 33.0489 26.3308 35.0508 28.8365 35.8328V46.4537H12.8657V30.5244ZM28.8365 46.4537H12.8657C12.8657 55.2512 20.0159 62.383 28.8363 62.383L28.8365 46.4537Z" fill="#161B2D"/>
<path fill-rule="evenodd" clip-rule="evenodd" d="M32.6043 10.8394H0.663086C0.663086 19.6367 7.81358 26.7685 16.6338 26.7686H23.5008C24.2401 23.2135 27.398 20.5419 31.1816 20.5419C34.965 20.5419 38.1229 23.2135 38.8623 26.7686H48.5752C48.5752 17.9711 41.4247 10.8394 32.6043 10.8394Z" fill="#161B2D"/>
<path d="M88.2754 13.3472V18.4933H81.2705V39.7162H74.8306V18.4933H67.8257V13.3472H88.2754Z" fill="#161B2D"/>
<path d="M97.9465 22.2484C98.6996 21.0966 99.6418 20.1951 100.771 19.544C101.901 18.8678 103.157 18.5298 104.538 18.5298V25.3286H102.767C101.16 25.3286 99.9553 25.6792 99.1523 26.3804C98.3484 27.0565 97.9465 28.2585 97.9465 29.9865V39.7151H91.5068V18.7552H97.9465V22.2484Z" fill="#161B2D"/>
<path d="M110.852 16.578C109.723 16.578 108.794 16.2525 108.066 15.6014C107.363 14.9253 107.011 14.0989 107.011 13.1222C107.011 12.1206 107.363 11.2942 108.066 10.6431C108.794 9.96697 109.723 9.62891 110.852 9.62891C111.958 9.62891 112.861 9.96697 113.564 10.6431C114.292 11.2942 114.656 12.1206 114.656 13.1222C114.656 14.0989 114.292 14.9253 113.564 15.6014C112.861 16.2525 111.958 16.578 110.852 16.578ZM114.054 18.7567V39.7166H107.614V18.7567H114.054Z" fill="#161B2D"/>
<path d="M117.44 29.1983C117.44 27.0447 117.842 25.154 118.646 23.5263C119.474 21.8986 120.592 20.6465 121.997 19.7701C123.403 18.8936 124.973 18.4553 126.705 18.4553C128.086 18.4553 129.341 18.7433 130.471 19.3193C131.626 19.8952 132.53 20.6715 133.182 21.6482V11.9194H139.623V39.7158H133.182V36.7109C132.58 37.7125 131.714 38.5138 130.584 39.1148C129.479 39.7158 128.186 40.0164 126.705 40.0164C124.973 40.0164 123.403 39.5781 121.997 38.7016C120.592 37.8002 119.474 36.5356 118.646 34.9078C117.842 33.2551 117.44 31.3519 117.44 29.1983ZM133.182 29.2359C133.182 27.6332 132.73 26.3686 131.827 25.442C130.948 24.5154 129.869 24.0522 128.588 24.0522C127.307 24.0522 126.215 24.5154 125.311 25.442C124.432 26.3435 123.994 27.5956 123.994 29.1983C123.994 30.801 124.432 32.0781 125.311 33.0297C126.215 33.9563 127.307 34.4195 128.588 34.4195C129.869 34.4195 130.948 33.9563 131.827 33.0297C132.73 32.1031 133.182 30.8385 133.182 29.2359Z" fill="#161B2D"/>
<path d="M143 29.198C143 27.0444 143.401 25.1537 144.205 23.5261C145.033 21.8983 146.151 20.6463 147.557 19.7698C148.962 18.8933 150.532 18.4551 152.265 18.4551C153.745 18.4551 155.039 18.7556 156.143 19.3566C157.274 19.9576 158.14 20.7464 158.742 21.723V18.7556H165.182V39.7156H158.742V36.7482C158.114 37.7248 157.235 38.5136 156.105 39.1146C155.001 39.7156 153.708 40.0161 152.227 40.0161C150.519 40.0161 148.962 39.5778 147.557 38.7014C146.151 37.7999 145.033 36.5353 144.205 34.9076C143.401 33.2548 143 31.3517 143 29.198ZM158.742 29.2356C158.742 27.6329 158.29 26.3683 157.387 25.4418C156.507 24.5152 155.428 24.0519 154.147 24.0519C152.867 24.0519 151.774 24.5152 150.871 25.4418C149.992 26.3432 149.553 27.5953 149.553 29.198C149.553 30.8007 149.992 32.0778 150.871 33.0294C151.774 33.956 152.867 34.4192 154.147 34.4192C155.428 34.4192 156.507 33.956 157.387 33.0294C158.29 32.1029 158.742 30.8383 158.742 29.2356Z" fill="#161B2D"/>
<path d="M74.1778 60.7779H72.9917L71.3961 57.1584C71.349 57.0552 71.2878 56.9143 71.2125 56.7359C71.1466 56.5575 71.0713 56.3604 70.9866 56.1444C70.9019 55.9285 70.8125 55.7032 70.7183 55.4684C70.6242 55.2243 70.5348 54.9802 70.45 54.7361C70.45 54.9802 70.4453 55.2243 70.4359 55.4684C70.4359 55.7032 70.4312 55.9285 70.4218 56.1444C70.4124 56.351 70.403 56.5388 70.3936 56.7078C70.3936 56.8674 70.3936 56.9941 70.3936 57.088L70.2524 60.7779H68.6709L69.2357 51.2152H70.5489L72.9634 57.1866C73.0482 57.4026 73.1423 57.6373 73.2458 57.8908C73.3588 58.1443 73.4623 58.3931 73.5565 58.6372C73.6506 58.3931 73.7495 58.149 73.853 57.9049C73.9566 57.6514 74.0554 57.4119 74.1495 57.1866L76.5782 51.2152H77.8631L78.4279 60.7779H76.8606L76.7053 57.1303C76.6959 56.8955 76.6817 56.5622 76.6629 56.1303C76.6535 55.6891 76.6441 55.2431 76.6347 54.7924C76.55 55.0271 76.4605 55.2619 76.3664 55.4966C76.2817 55.7313 76.2017 55.952 76.1264 56.1585C76.051 56.3651 75.9804 56.5529 75.9145 56.7219C75.8486 56.8909 75.7969 57.0223 75.7592 57.1162L74.1778 60.7779ZM79.892 57.4401C79.892 56.811 79.9767 56.2571 80.1462 55.7783C80.325 55.2994 80.5651 54.9004 80.8663 54.5812C81.1769 54.2526 81.5394 54.0084 81.9536 53.8488C82.3677 53.6798 82.8149 53.5953 83.295 53.5953C83.7186 53.5953 84.0763 53.647 84.3681 53.7502C84.6693 53.8535 84.9141 53.9944 85.1023 54.1727C85.2906 54.3511 85.4271 54.5624 85.5118 54.8065C85.606 55.0506 85.653 55.3135 85.653 55.5952C85.653 55.9332 85.5589 56.2571 85.3706 56.5669C85.1824 56.8674 84.9094 57.135 84.5517 57.3697C84.2034 57.595 83.7798 57.7781 83.2808 57.9189C82.7819 58.0504 82.2218 58.1208 81.6006 58.1302C81.6288 58.3461 81.6711 58.5527 81.7276 58.7499C81.7935 58.9377 81.883 59.1067 81.9959 59.2569C82.1183 59.3977 82.2736 59.5104 82.4619 59.5949C82.6502 59.6794 82.8855 59.7216 83.1679 59.7216C83.375 59.7216 83.5962 59.6982 83.8315 59.6512C84.0669 59.6043 84.2834 59.5479 84.4811 59.4822C84.7164 59.4071 84.947 59.3226 85.173 59.2287L85.5966 60.2286C85.3518 60.3507 85.0882 60.4587 84.8058 60.5526C84.5611 60.6371 84.2787 60.7122 83.9586 60.7779C83.6386 60.8436 83.2997 60.8765 82.942 60.8765C82.396 60.8765 81.93 60.7967 81.5441 60.6371C81.1581 60.4681 80.8428 60.2333 80.598 59.9329C80.3533 59.6324 80.1744 59.271 80.0615 58.8485C79.9485 58.426 79.892 57.9565 79.892 57.4401ZM83.1679 54.6938C82.8572 54.6938 82.5984 54.7689 82.3913 54.9192C82.1936 55.06 82.0336 55.2478 81.9112 55.4825C81.7888 55.7078 81.6994 55.966 81.6429 56.2571C81.5958 56.5388 81.5676 56.8251 81.5582 57.1162C82.01 57.0974 82.3913 57.0411 82.7019 56.9472C83.022 56.8439 83.2808 56.7219 83.4785 56.581C83.6762 56.4308 83.8174 56.2712 83.9021 56.1022C83.9963 55.9332 84.0433 55.7642 84.0433 55.5952C84.0433 55.3229 83.9633 55.107 83.8033 54.9473C83.6433 54.7783 83.4315 54.6938 83.1679 54.6938ZM92.8778 57.3838C92.8778 57.9471 92.9107 58.4213 92.9766 58.8062C93.0519 59.1818 93.1319 59.4869 93.2166 59.7216C93.3202 60.0033 93.4332 60.2239 93.5555 60.3835L92.2988 60.8906C92.1765 60.7685 92.0635 60.623 91.9599 60.454C91.8752 60.3037 91.7952 60.1254 91.7199 59.9188C91.6446 59.7029 91.5975 59.4494 91.5787 59.1583C91.4187 59.7216 91.1598 60.1488 90.8021 60.4399C90.4538 60.7216 89.9784 60.8624 89.376 60.8624C88.9335 60.8624 88.5476 60.7826 88.2181 60.623C87.8981 60.454 87.6298 60.2192 87.4133 59.9188C87.1967 59.609 87.0367 59.2381 86.9332 58.8062C86.8296 58.3743 86.7779 57.8955 86.7779 57.3697C86.7779 56.8345 86.8579 56.3416 87.0179 55.8909C87.1873 55.4309 87.418 55.0365 87.7098 54.7079C88.011 54.3793 88.3687 54.1211 88.7829 53.9333C89.1971 53.7455 89.6537 53.6517 90.1526 53.6517C90.435 53.6517 90.7268 53.6751 91.028 53.7221C91.3387 53.7596 91.6258 53.8019 91.8893 53.8488C92.1529 53.8958 92.3741 53.9427 92.553 53.9897C92.7413 54.0272 92.8495 54.0507 92.8778 54.0601V57.3838ZM89.6442 59.7357C89.8796 59.7357 90.0961 59.6559 90.2938 59.4963C90.4914 59.3367 90.6609 59.1301 90.8021 58.8766C90.9527 58.6137 91.0657 58.318 91.141 57.9894C91.2257 57.6514 91.2681 57.3087 91.2681 56.9613V54.9333C91.1739 54.9051 91.0327 54.8722 90.8445 54.8347C90.6562 54.7971 90.4867 54.7783 90.3361 54.7783C89.9784 54.7783 89.6819 54.8394 89.4466 54.9614C89.2206 55.0835 89.0371 55.2525 88.8959 55.4684C88.7547 55.6844 88.6558 55.9426 88.5993 56.243C88.5429 56.5435 88.5146 56.8721 88.5146 57.2289C88.5146 57.5575 88.524 57.872 88.5429 58.1724C88.5617 58.4729 88.6088 58.7405 88.6841 58.9752C88.7688 59.2099 88.8865 59.3977 89.0371 59.5385C89.1877 59.67 89.3901 59.7357 89.6442 59.7357ZM97.0593 53.5953C97.3323 53.5953 97.6006 53.6235 97.8642 53.6798C98.1277 53.7362 98.3631 53.8019 98.5702 53.877C98.8149 53.9615 99.0408 54.0507 99.2479 54.1446L98.7678 55.2431C98.5796 55.1586 98.3913 55.0835 98.203 55.0178C98.043 54.9614 97.8642 54.9098 97.6665 54.8628C97.4782 54.8065 97.2899 54.7783 97.1017 54.7783C96.8852 54.7783 96.6969 54.83 96.5369 54.9333C96.3862 55.0365 96.3109 55.1915 96.3109 55.398C96.3109 55.9332 96.7016 56.351 97.4829 56.6514C97.7747 56.7641 98.0383 56.8862 98.2736 57.0176C98.509 57.1397 98.7067 57.2852 98.8667 57.4542C99.0361 57.6232 99.1632 57.8204 99.2479 58.0457C99.3326 58.2616 99.375 58.5198 99.375 58.8203C99.375 59.0832 99.3185 59.3414 99.2056 59.5949C99.102 59.8484 98.942 60.0737 98.7255 60.2709C98.5184 60.4681 98.2595 60.6277 97.9489 60.7497C97.6476 60.8624 97.3041 60.9187 96.9181 60.9187C96.6075 60.9187 96.3015 60.8812 96.0003 60.8061C95.6991 60.7403 95.4261 60.6652 95.1813 60.5807C94.946 60.4962 94.7576 60.4164 94.6164 60.3413L94.4046 60.2427L94.9272 59.0597L95.1107 59.1583C95.2331 59.2334 95.3884 59.3132 95.5767 59.3977C95.765 59.4822 95.9673 59.562 96.1839 59.6371C96.4004 59.7029 96.598 59.7357 96.7769 59.7357C97.1064 59.7357 97.3511 59.67 97.5112 59.5385C97.6712 59.4071 97.7512 59.2334 97.7512 59.0175C97.7512 58.7733 97.6618 58.5527 97.4829 58.3555C97.3135 58.149 97.0546 57.98 96.7063 57.8485C95.9815 57.5763 95.459 57.2664 95.139 56.919C94.8283 56.5716 94.6729 56.121 94.6729 55.567C94.6729 55.3041 94.7341 55.0553 94.8566 54.8206C94.9789 54.5765 95.1437 54.3652 95.3508 54.1868C95.5673 53.9991 95.8214 53.8535 96.1133 53.7502C96.4051 53.647 96.7204 53.5953 97.0593 53.5953ZM105.193 53.7643H106.803V57.3838C106.803 57.9471 106.836 58.4213 106.902 58.8062C106.977 59.1818 107.057 59.4869 107.142 59.7216C107.246 60.0033 107.359 60.2239 107.481 60.3835L106.224 60.8906C106.111 60.7873 106.008 60.6558 105.914 60.4962C105.838 60.3648 105.758 60.2052 105.674 60.0174C105.598 59.8202 105.546 59.5902 105.518 59.3273C105.264 59.8812 104.906 60.2756 104.445 60.5103C103.984 60.745 103.504 60.8624 103.005 60.8624C102.261 60.8624 101.729 60.6464 101.409 60.2146C101.099 59.7827 100.943 59.1912 100.943 58.44V53.7643H102.553V58.4119C102.553 58.8062 102.624 59.116 102.765 59.3414C102.906 59.5667 103.146 59.6794 103.485 59.6794C103.692 59.6794 103.894 59.623 104.092 59.5104C104.299 59.3883 104.483 59.2193 104.643 59.0034C104.812 58.7874 104.944 58.5292 105.038 58.2288C105.142 57.9189 105.193 57.5762 105.193 57.2007V53.7643ZM112.125 55.229C111.955 55.229 111.786 55.2713 111.616 55.3558C111.447 55.4403 111.296 55.5576 111.164 55.7078C111.033 55.8487 110.924 56.0224 110.84 56.2289C110.755 56.4355 110.713 56.6655 110.713 56.919V60.7779H109.103V57.2289C109.103 56.6655 109.065 56.1961 108.99 55.8205C108.915 55.4356 108.835 55.1257 108.75 54.891C108.646 54.6187 108.533 54.3981 108.411 54.2291L109.682 53.7221C109.767 53.8254 109.856 53.9521 109.95 54.1023C110.025 54.2338 110.101 54.3887 110.176 54.5671C110.251 54.7455 110.312 54.9567 110.36 55.2008C110.548 54.6563 110.821 54.2666 111.179 54.0319C111.536 53.7878 111.941 53.6657 112.393 53.6657C112.609 53.6657 112.812 53.6939 113 53.7502C113.188 53.7972 113.278 53.8207 113.268 53.8207L112.816 55.3839C112.826 55.3839 112.769 55.3605 112.647 55.3135C112.534 55.2572 112.36 55.229 112.125 55.229ZM113.549 57.4401C113.549 56.811 113.634 56.2571 113.803 55.7783C113.982 55.2994 114.222 54.9004 114.523 54.5812C114.834 54.2526 115.196 54.0084 115.61 53.8488C116.025 53.6798 116.472 53.5953 116.952 53.5953C117.375 53.5953 117.733 53.647 118.025 53.7502C118.326 53.8535 118.571 53.9944 118.759 54.1727C118.947 54.3511 119.084 54.5624 119.169 54.8065C119.263 55.0506 119.31 55.3135 119.31 55.5952C119.31 55.9332 119.216 56.2571 119.027 56.5669C118.839 56.8674 118.566 57.135 118.208 57.3697C117.86 57.595 117.437 57.7781 116.938 57.9189C116.439 58.0504 115.879 58.1208 115.257 58.1302C115.286 58.3461 115.328 58.5527 115.384 58.7499C115.45 58.9377 115.54 59.1067 115.653 59.2569C115.775 59.3977 115.93 59.5104 116.119 59.5949C116.307 59.6794 116.542 59.7216 116.825 59.7216C117.032 59.7216 117.253 59.6982 117.488 59.6512C117.724 59.6043 117.94 59.5479 118.138 59.4822C118.373 59.4071 118.604 59.3226 118.83 59.2287L119.253 60.2286C119.009 60.3507 118.745 60.4587 118.463 60.5526C118.218 60.6371 117.935 60.7122 117.615 60.7779C117.295 60.8436 116.957 60.8765 116.599 60.8765C116.053 60.8765 115.587 60.7967 115.201 60.6371C114.815 60.4681 114.5 60.2333 114.255 59.9329C114.01 59.6324 113.831 59.271 113.718 58.8485C113.605 58.426 113.549 57.9565 113.549 57.4401ZM116.825 54.6938C116.514 54.6938 116.255 54.7689 116.048 54.9192C115.85 55.06 115.69 55.2478 115.568 55.4825C115.446 55.7078 115.356 55.966 115.3 56.2571C115.253 56.5388 115.224 56.8251 115.215 57.1162C115.667 57.0974 116.048 57.0411 116.359 56.9472C116.679 56.8439 116.938 56.7219 117.135 56.581C117.333 56.4308 117.474 56.2712 117.559 56.1022C117.653 55.9332 117.7 55.7642 117.7 55.5952C117.7 55.3229 117.62 55.107 117.46 54.9473C117.3 54.7783 117.088 54.6938 116.825 54.6938ZM121.585 58.8062C121.915 58.8062 122.164 58.9048 122.333 59.102C122.512 59.2991 122.602 59.5526 122.602 59.8625C122.602 60.1629 122.512 60.4164 122.333 60.623C122.155 60.8295 121.891 60.9328 121.543 60.9328C121.213 60.9328 120.959 60.8295 120.78 60.623C120.601 60.4164 120.512 60.1723 120.512 59.8906C120.512 59.5902 120.601 59.3367 120.78 59.1301C120.959 58.9142 121.227 58.8062 121.585 58.8062ZM128.467 51.2434H130.148V60.7779H128.467V51.2434ZM140.243 60.7779V56.1867C140.243 55.7923 140.181 55.4825 140.059 55.2572C139.937 55.0224 139.725 54.9051 139.424 54.9051C139.245 54.9051 139.061 54.9567 138.873 55.06C138.694 55.1539 138.529 55.2947 138.379 55.4825C138.228 55.6703 138.106 55.8956 138.012 56.1585C137.917 56.4214 137.87 56.7125 137.87 57.0317V60.7779H136.275V56.1867C136.275 55.7923 136.214 55.4825 136.091 55.2572C135.969 55.0224 135.757 54.9051 135.456 54.9051C135.268 54.9051 135.079 54.9614 134.891 55.0741C134.712 55.1774 134.547 55.3323 134.397 55.5388C134.256 55.7454 134.138 55.9989 134.044 56.2993C133.959 56.5904 133.917 56.919 133.917 57.2852V60.7779H132.307V57.2289C132.307 56.6655 132.269 56.1961 132.194 55.8205C132.119 55.4356 132.039 55.1257 131.954 54.891C131.85 54.6187 131.737 54.3981 131.615 54.2291L132.886 53.7221C132.98 53.8254 133.074 53.9521 133.168 54.1023C133.244 54.2338 133.319 54.3981 133.394 54.5953C133.47 54.783 133.531 54.999 133.578 55.2431C133.813 54.6798 134.143 54.276 134.566 54.0319C134.999 53.7784 135.456 53.6517 135.936 53.6517C136.416 53.6517 136.788 53.7737 137.051 54.0178C137.324 54.2619 137.527 54.5765 137.659 54.9614C137.913 54.492 138.237 54.1587 138.633 53.9615C139.038 53.7549 139.461 53.6517 139.904 53.6517C140.271 53.6517 140.577 53.7127 140.821 53.8347C141.076 53.9474 141.273 54.1117 141.415 54.3277C141.565 54.5342 141.673 54.7877 141.739 55.0882C141.805 55.3792 141.838 55.7078 141.838 56.074V60.7779H140.243ZM143.936 63.8903V57.2289C143.936 56.6655 143.899 56.1961 143.823 55.8205C143.748 55.4356 143.668 55.1257 143.583 54.891C143.48 54.6187 143.367 54.3981 143.244 54.2291L144.515 53.7221C144.628 53.8347 144.732 53.9756 144.826 54.1446C144.901 54.2854 144.977 54.4591 145.052 54.6657C145.127 54.8628 145.184 55.0976 145.221 55.3698C145.381 54.8065 145.636 54.3793 145.984 54.0882C146.332 53.7972 146.817 53.6517 147.438 53.6517C147.881 53.6517 148.262 53.7362 148.582 53.9052C148.911 54.0648 149.18 54.2995 149.387 54.6093C149.603 54.9098 149.763 55.276 149.867 55.7078C149.97 56.1397 150.022 56.6186 150.022 57.1444C150.022 57.6795 149.942 58.1771 149.782 58.6372C149.622 59.0879 149.391 59.4775 149.09 59.8061C148.798 60.1347 148.445 60.3929 148.031 60.5807C147.617 60.7685 147.156 60.8624 146.647 60.8624C146.469 60.8624 146.285 60.853 146.097 60.8342C145.918 60.8154 145.734 60.7967 145.546 60.7779V63.6087L143.936 63.8903ZM147.17 54.7783C146.935 54.7783 146.718 54.8581 146.52 55.0178C146.323 55.1774 146.149 55.3886 145.998 55.6515C145.857 55.9144 145.744 56.2102 145.659 56.5388C145.584 56.8674 145.546 57.2054 145.546 57.5528V59.5808C145.64 59.609 145.781 59.6418 145.97 59.6794C146.158 59.7169 146.323 59.7357 146.464 59.7357C146.822 59.7357 147.118 59.6747 147.353 59.5526C147.589 59.4306 147.777 59.2616 147.918 59.0456C148.059 58.8297 148.158 58.5715 148.215 58.271C148.271 57.9706 148.299 57.642 148.299 57.2852C148.299 56.9566 148.29 56.642 148.271 56.3416C148.252 56.0412 148.201 55.7736 148.116 55.5388C148.041 55.3041 147.928 55.121 147.777 54.9896C147.626 54.8488 147.424 54.7783 147.17 54.7783ZM154.809 55.229C154.639 55.229 154.47 55.2713 154.301 55.3558C154.131 55.4403 153.981 55.5576 153.849 55.7078C153.717 55.8487 153.609 56.0224 153.524 56.2289C153.439 56.4355 153.397 56.6655 153.397 56.919V60.7779H151.787V57.2289C151.787 56.6655 151.75 56.1961 151.674 55.8205C151.599 55.4356 151.519 55.1257 151.434 54.891C151.331 54.6187 151.218 54.3981 151.095 54.2291L152.366 53.7221C152.451 53.8254 152.54 53.9521 152.634 54.1023C152.71 54.2338 152.785 54.3887 152.86 54.5671C152.936 54.7455 152.997 54.9567 153.044 55.2008C153.232 54.6563 153.505 54.2666 153.863 54.0319C154.221 53.7878 154.625 53.6657 155.077 53.6657C155.294 53.6657 155.496 53.6939 155.684 53.7502C155.873 53.7972 155.962 53.8207 155.953 53.8207L155.501 55.3839C155.51 55.3839 155.454 55.3605 155.331 55.3135C155.218 55.2572 155.044 55.229 154.809 55.229ZM159.453 53.5953C160.535 53.5953 161.321 53.9145 161.811 54.553C162.3 55.1915 162.545 56.0693 162.545 57.1866C162.545 57.7124 162.479 58.2053 162.347 58.6654C162.215 59.116 162.013 59.5104 161.74 59.8484C161.476 60.177 161.142 60.4399 160.737 60.6371C160.333 60.8248 159.862 60.9187 159.325 60.9187C158.789 60.9187 158.323 60.8389 157.928 60.6793C157.542 60.5103 157.222 60.2709 156.967 59.961C156.713 59.6512 156.525 59.2757 156.403 58.8344C156.29 58.3931 156.233 57.8955 156.233 57.3415C156.233 56.8064 156.299 56.3134 156.431 55.8628C156.563 55.4027 156.76 55.0084 157.024 54.6798C157.297 54.3418 157.636 54.0789 158.041 53.8911C158.445 53.6939 158.916 53.5953 159.453 53.5953ZM159.311 54.7783C159.038 54.7783 158.812 54.8394 158.634 54.9614C158.464 55.0835 158.328 55.2572 158.224 55.4825C158.13 55.6985 158.064 55.9567 158.026 56.2571C157.989 56.5482 157.97 56.8627 157.97 57.2007C157.97 57.5481 157.989 57.8767 158.026 58.1865C158.073 58.4964 158.153 58.7686 158.266 59.0034C158.379 59.2287 158.53 59.4071 158.718 59.5385C158.916 59.67 159.165 59.7357 159.467 59.7357C159.74 59.7357 159.961 59.6747 160.13 59.5526C160.309 59.4306 160.446 59.2616 160.54 59.0456C160.643 58.8203 160.714 58.5621 160.752 58.271C160.789 57.98 160.808 57.6654 160.808 57.3274C160.808 56.9801 160.785 56.6514 160.737 56.3416C160.7 56.0318 160.625 55.7595 160.512 55.5248C160.399 55.29 160.243 55.1069 160.046 54.9755C159.857 54.8441 159.613 54.7783 159.311 54.7783ZM169.868 53.7643L169.896 53.877C169.905 53.9615 169.919 54.0742 169.938 54.215C169.957 54.3464 169.971 54.5014 169.981 54.6798C169.999 54.8488 170.009 55.0225 170.009 55.2008C170.009 56.243 169.929 57.1256 169.769 57.8485C169.618 58.5621 169.383 59.1442 169.063 59.5949C168.752 60.0362 168.352 60.3554 167.863 60.5526C167.382 60.7497 166.813 60.8483 166.154 60.8483C165.41 60.8483 164.878 60.6371 164.558 60.2146C164.248 59.7827 164.092 59.1912 164.092 58.44V53.7643H165.702V58.3978C165.702 58.7921 165.773 59.1113 165.914 59.3555C166.055 59.5996 166.295 59.7216 166.634 59.7216C166.973 59.7216 167.255 59.5949 167.481 59.3414C167.707 59.0879 167.886 58.7593 168.018 58.3555C168.15 57.9424 168.244 57.4777 168.3 56.9613C168.357 56.4355 168.385 55.905 168.385 55.3698C168.385 55.1727 168.376 54.9802 168.357 54.7924C168.347 54.5953 168.328 54.4216 168.3 54.2713C168.281 54.1211 168.267 53.9991 168.258 53.9052L168.23 53.7643H169.868ZM171.357 57.4401C171.357 56.811 171.442 56.2571 171.611 55.7783C171.79 55.2994 172.03 54.9004 172.331 54.5812C172.642 54.2526 173.004 54.0084 173.418 53.8488C173.833 53.6798 174.28 53.5953 174.76 53.5953C175.183 53.5953 175.541 53.647 175.833 53.7502C176.134 53.8535 176.379 53.9944 176.567 54.1727C176.755 54.3511 176.892 54.5624 176.977 54.8065C177.071 55.0506 177.118 55.3135 177.118 55.5952C177.118 55.9332 177.024 56.2571 176.835 56.5669C176.647 56.8674 176.374 57.135 176.016 57.3697C175.668 57.595 175.245 57.7781 174.746 57.9189C174.247 58.0504 173.687 58.1208 173.065 58.1302C173.094 58.3461 173.136 58.5527 173.192 58.7499C173.258 58.9377 173.348 59.1067 173.461 59.2569C173.583 59.3977 173.738 59.5104 173.927 59.5949C174.115 59.6794 174.35 59.7216 174.633 59.7216C174.84 59.7216 175.061 59.6982 175.296 59.6512C175.532 59.6043 175.748 59.5479 175.946 59.4822C176.181 59.4071 176.412 59.3226 176.638 59.2287L177.061 60.2286C176.817 60.3507 176.553 60.4587 176.271 60.5526C176.026 60.6371 175.743 60.7122 175.423 60.7779C175.103 60.8436 174.764 60.8765 174.407 60.8765C173.861 60.8765 173.395 60.7967 173.009 60.6371C172.623 60.4681 172.308 60.2333 172.063 59.9329C171.818 59.6324 171.639 59.271 171.526 58.8485C171.413 58.426 171.357 57.9565 171.357 57.4401ZM174.633 54.6938C174.322 54.6938 174.063 54.7689 173.856 54.9192C173.658 55.06 173.498 55.2478 173.376 55.4825C173.254 55.7078 173.164 55.966 173.108 56.2571C173.061 56.5388 173.032 56.8251 173.023 57.1162C173.475 57.0974 173.856 57.0411 174.167 56.9472C174.487 56.8439 174.746 56.7219 174.943 56.581C175.141 56.4308 175.282 56.2712 175.367 56.1022C175.461 55.9332 175.508 55.7642 175.508 55.5952C175.508 55.3229 175.428 55.107 175.268 54.9473C175.108 54.7783 174.896 54.6938 174.633 54.6938ZM179.393 58.8062C179.723 58.8062 179.972 58.9048 180.141 59.102C180.32 59.2991 180.41 59.5526 180.41 59.8625C180.41 60.1629 180.32 60.4164 180.141 60.623C179.963 60.8295 179.699 60.9328 179.351 60.9328C179.021 60.9328 178.767 60.8295 178.588 60.623C178.409 60.4164 178.32 60.1723 178.32 59.8906C178.32 59.5902 178.409 59.3367 178.588 59.1301C178.767 58.9142 179.035 58.8062 179.393 58.8062ZM189.029 51.1166C189.358 51.1166 189.673 51.1495 189.975 51.2152C190.276 51.2716 190.549 51.342 190.794 51.4265C191.048 51.5016 191.26 51.5814 191.429 51.6659C191.608 51.7504 191.73 51.8161 191.796 51.8631L191.104 53.0742L190.921 52.9757C190.798 52.9099 190.638 52.8348 190.441 52.7503C190.243 52.6658 190.026 52.5907 189.791 52.525C189.556 52.4593 189.33 52.4264 189.113 52.4264C188.774 52.4264 188.478 52.5062 188.224 52.6658C187.979 52.8254 187.857 53.0742 187.857 53.4122C187.857 53.8347 187.993 54.1821 188.266 54.4544C188.539 54.7173 188.967 54.9614 189.551 55.1868C189.928 55.337 190.262 55.4966 190.554 55.6656C190.855 55.8252 191.109 56.013 191.316 56.2289C191.523 56.4449 191.679 56.6937 191.782 56.9754C191.895 57.257 191.952 57.595 191.952 57.9894C191.952 58.3461 191.881 58.6982 191.74 59.0456C191.608 59.393 191.406 59.7029 191.133 59.9751C190.869 60.238 190.539 60.454 190.144 60.623C189.749 60.7826 189.292 60.8624 188.774 60.8624C188.407 60.8624 188.059 60.8248 187.73 60.7497C187.4 60.6746 187.099 60.5901 186.826 60.4962C186.562 60.3929 186.332 60.2897 186.134 60.1864C185.946 60.0831 185.805 60.0033 185.71 59.947L186.303 58.6513L186.558 58.7921C186.727 58.886 186.934 58.9893 187.179 59.102C187.424 59.2146 187.683 59.3179 187.956 59.4118C188.229 59.5057 188.464 59.5526 188.662 59.5526C189.16 59.5526 189.532 59.4306 189.777 59.1865C190.022 58.9423 190.144 58.5996 190.144 58.1584C190.144 57.9518 190.111 57.7734 190.045 57.6232C189.979 57.4636 189.885 57.3274 189.763 57.2148C189.641 57.1021 189.49 57.0035 189.311 56.919C189.142 56.8251 188.949 56.7359 188.732 56.6514C188.309 56.473 187.927 56.2947 187.588 56.1163C187.259 55.9379 186.977 55.736 186.741 55.5107C186.506 55.276 186.327 55.0131 186.205 54.722C186.082 54.4216 186.021 54.0648 186.021 53.6517C186.021 53.3043 186.096 52.9803 186.247 52.6799C186.398 52.3701 186.605 52.1025 186.868 51.8771C187.132 51.6424 187.447 51.4593 187.814 51.3279C188.181 51.1871 188.586 51.1166 189.029 51.1166ZM197.615 53.7643H199.224V57.3838C199.224 57.9471 199.257 58.4213 199.323 58.8062C199.398 59.1818 199.479 59.4869 199.563 59.7216C199.667 60.0033 199.78 60.2239 199.902 60.3835L198.645 60.8906C198.532 60.7873 198.429 60.6558 198.335 60.4962C198.259 60.3648 198.179 60.2052 198.095 60.0174C198.019 59.8202 197.968 59.5902 197.939 59.3273C197.685 59.8812 197.328 60.2756 196.866 60.5103C196.405 60.745 195.925 60.8624 195.426 60.8624C194.682 60.8624 194.15 60.6464 193.83 60.2146C193.52 59.7827 193.364 59.1912 193.364 58.44V53.7643H194.974V58.4119C194.974 58.8062 195.045 59.116 195.186 59.3414C195.327 59.5667 195.567 59.6794 195.906 59.6794C196.113 59.6794 196.316 59.623 196.513 59.5104C196.72 59.3883 196.904 59.2193 197.064 59.0034C197.233 58.7874 197.365 58.5292 197.459 58.2288C197.563 57.9189 197.615 57.5762 197.615 57.2007V53.7643ZM205.209 55.4121C205.068 55.2525 204.922 55.1163 204.772 55.0037C204.63 54.891 204.438 54.8347 204.193 54.8347C204.052 54.8347 203.892 54.8581 203.713 54.9051C203.543 54.9426 203.383 55.0459 203.233 55.2149C203.082 55.3745 202.955 55.614 202.851 55.9332C202.757 56.2524 202.71 56.6843 202.71 57.2289C202.71 57.7828 202.757 58.2241 202.851 58.5527C202.955 58.8719 203.082 59.1207 203.233 59.2991C203.393 59.4775 203.562 59.5949 203.741 59.6512C203.92 59.6982 204.094 59.7216 204.263 59.7216C204.395 59.7216 204.532 59.7122 204.673 59.6935C204.814 59.6653 204.951 59.6371 205.082 59.609C205.214 59.5714 205.327 59.5385 205.421 59.5104C205.525 59.4822 205.6 59.4587 205.647 59.44L206.043 60.454C206.014 60.4634 205.948 60.4915 205.845 60.5385C205.751 60.5854 205.619 60.6324 205.449 60.6793C205.28 60.7262 205.078 60.7685 204.842 60.8061C204.607 60.853 204.343 60.8765 204.052 60.8765C203.506 60.8765 203.04 60.7967 202.654 60.6371C202.268 60.4681 201.948 60.2333 201.693 59.9329C201.449 59.6324 201.265 59.271 201.143 58.8485C201.03 58.426 200.973 57.9565 200.973 57.4401C200.973 56.8204 201.053 56.2712 201.213 55.7923C201.383 55.3135 201.613 54.9145 201.905 54.5953C202.197 54.2666 202.541 54.0178 202.936 53.8488C203.331 53.6798 203.755 53.5953 204.207 53.5953C204.649 53.5953 205.021 53.6798 205.322 53.8488C205.633 54.0178 205.897 54.2526 206.113 54.553L205.209 55.4121ZM211.074 55.4121C210.933 55.2525 210.787 55.1163 210.636 55.0037C210.495 54.891 210.302 54.8347 210.057 54.8347C209.916 54.8347 209.756 54.8581 209.577 54.9051C209.408 54.9426 209.248 55.0459 209.097 55.2149C208.947 55.3745 208.819 55.614 208.716 55.9332C208.622 56.2524 208.575 56.6843 208.575 57.2289C208.575 57.7828 208.622 58.2241 208.716 58.5527C208.819 58.8719 208.947 59.1207 209.097 59.2991C209.257 59.4775 209.427 59.5949 209.605 59.6512C209.784 59.6982 209.958 59.7216 210.128 59.7216C210.26 59.7216 210.396 59.7122 210.537 59.6935C210.679 59.6653 210.815 59.6371 210.947 59.609C211.079 59.5714 211.192 59.5385 211.286 59.5104C211.389 59.4822 211.465 59.4587 211.512 59.44L211.907 60.454C211.879 60.4634 211.813 60.4915 211.709 60.5385C211.615 60.5854 211.483 60.6324 211.314 60.6793C211.145 60.7262 210.942 60.7685 210.707 60.8061C210.472 60.853 210.208 60.8765 209.916 60.8765C209.37 60.8765 208.904 60.7967 208.518 60.6371C208.132 60.4681 207.812 60.2333 207.558 59.9329C207.313 59.6324 207.13 59.271 207.007 58.8485C206.894 58.426 206.838 57.9565 206.838 57.4401C206.838 56.8204 206.918 56.2712 207.078 55.7923C207.247 55.3135 207.478 54.9145 207.77 54.5953C208.062 54.2666 208.405 54.0178 208.801 53.8488C209.196 53.6798 209.62 53.5953 210.071 53.5953C210.514 53.5953 210.886 53.6798 211.187 53.8488C211.498 54.0178 211.761 54.2526 211.978 54.553L211.074 55.4121ZM212.703 57.4401C212.703 56.811 212.788 56.2571 212.958 55.7783C213.136 55.2994 213.377 54.9004 213.678 54.5812C213.988 54.2526 214.351 54.0084 214.765 53.8488C215.179 53.6798 215.626 53.5953 216.106 53.5953C216.53 53.5953 216.888 53.647 217.18 53.7502C217.481 53.8535 217.726 53.9944 217.914 54.1727C218.102 54.3511 218.239 54.5624 218.323 54.8065C218.417 55.0506 218.464 55.3135 218.464 55.5952C218.464 55.9332 218.37 56.2571 218.182 56.5669C217.994 56.8674 217.721 57.135 217.363 57.3697C217.015 57.595 216.591 57.7781 216.092 57.9189C215.593 58.0504 215.033 58.1208 214.412 58.1302C214.44 58.3461 214.483 58.5527 214.539 58.7499C214.605 58.9377 214.694 59.1067 214.807 59.2569C214.93 59.3977 215.085 59.5104 215.273 59.5949C215.462 59.6794 215.697 59.7216 215.979 59.7216C216.186 59.7216 216.408 59.6982 216.643 59.6512C216.878 59.6043 217.095 59.5479 217.293 59.4822C217.528 59.4071 217.758 59.3226 217.984 59.2287L218.408 60.2286C218.163 60.3507 217.9 60.4587 217.617 60.5526C217.373 60.6371 217.09 60.7122 216.77 60.7779C216.45 60.8436 216.111 60.8765 215.753 60.8765C215.207 60.8765 214.741 60.7967 214.356 60.6371C213.97 60.4681 213.654 60.2333 213.409 59.9329C213.165 59.6324 212.986 59.271 212.873 58.8485C212.76 58.426 212.703 57.9565 212.703 57.4401ZM215.979 54.6938C215.669 54.6938 215.41 54.7689 215.203 54.9192C215.005 55.06 214.845 55.2478 214.723 55.4825C214.6 55.7078 214.511 55.966 214.454 56.2571C214.407 56.5388 214.379 56.8251 214.37 57.1162C214.821 57.0974 215.203 57.0411 215.513 56.9472C215.833 56.8439 216.092 56.7219 216.29 56.581C216.488 56.4308 216.629 56.2712 216.714 56.1022C216.808 55.9332 216.855 55.7642 216.855 55.5952C216.855 55.3229 216.775 55.107 216.615 54.9473C216.455 54.7783 216.243 54.6938 215.979 54.6938ZM219.589 57.4401C219.589 56.811 219.674 56.2571 219.844 55.7783C220.022 55.2994 220.262 54.9004 220.564 54.5812C220.874 54.2526 221.237 54.0084 221.651 53.8488C222.065 53.6798 222.512 53.5953 222.992 53.5953C223.416 53.5953 223.774 53.647 224.065 53.7502C224.367 53.8535 224.611 53.9944 224.8 54.1727C224.988 54.3511 225.124 54.5624 225.209 54.8065C225.303 55.0506 225.35 55.3135 225.35 55.5952C225.35 55.9332 225.256 56.2571 225.068 56.5669C224.88 56.8674 224.607 57.135 224.249 57.3697C223.901 57.595 223.477 57.7781 222.978 57.9189C222.479 58.0504 221.919 58.1208 221.298 58.1302C221.326 58.3461 221.369 58.5527 221.425 58.7499C221.491 58.9377 221.58 59.1067 221.693 59.2569C221.816 59.3977 221.971 59.5104 222.159 59.5949C222.348 59.6794 222.583 59.7216 222.865 59.7216C223.072 59.7216 223.294 59.6982 223.529 59.6512C223.764 59.6043 223.981 59.5479 224.178 59.4822C224.414 59.4071 224.644 59.3226 224.87 59.2287L225.294 60.2286C225.049 60.3507 224.786 60.4587 224.503 60.5526C224.258 60.6371 223.976 60.7122 223.656 60.7779C223.336 60.8436 222.997 60.8765 222.639 60.8765C222.093 60.8765 221.627 60.7967 221.241 60.6371C220.855 60.4681 220.54 60.2333 220.295 59.9329C220.051 59.6324 219.872 59.271 219.759 58.8485C219.646 58.426 219.589 57.9565 219.589 57.4401ZM222.865 54.6938C222.555 54.6938 222.296 54.7689 222.089 54.9192C221.891 55.06 221.731 55.2478 221.609 55.4825C221.486 55.7078 221.397 55.966 221.34 56.2571C221.293 56.5388 221.265 56.8251 221.256 57.1162C221.707 57.0974 222.089 57.0411 222.399 56.9472C222.719 56.8439 222.978 56.7219 223.176 56.581C223.374 56.4308 223.515 56.2712 223.6 56.1022C223.694 55.9332 223.741 55.7642 223.741 55.5952C223.741 55.3229 223.661 55.107 223.501 54.9473C223.341 54.7783 223.129 54.6938 222.865 54.6938ZM231.996 60.8906C231.977 60.8812 231.935 60.8389 231.869 60.7638C231.803 60.6793 231.728 60.5666 231.643 60.4258C231.568 60.285 231.493 60.1113 231.417 59.9047C231.342 59.6888 231.295 59.44 231.276 59.1583C231.116 59.7216 230.857 60.1488 230.5 60.4399C230.151 60.7216 229.676 60.8624 229.073 60.8624C228.631 60.8624 228.245 60.7826 227.916 60.623C227.596 60.454 227.327 60.2192 227.111 59.9188C226.894 59.609 226.734 59.2381 226.631 58.8062C226.527 58.3743 226.475 57.8955 226.475 57.3697C226.475 56.8345 226.555 56.3416 226.715 55.8909C226.885 55.4309 227.115 55.0365 227.407 54.7079C227.708 54.3793 228.066 54.1211 228.48 53.9333C228.895 53.7455 229.351 53.6517 229.85 53.6517C230.019 53.6517 230.198 53.661 230.387 53.6798C230.584 53.6986 230.777 53.7221 230.966 53.7502V50.5674L232.575 50.8491V57.3838C232.575 57.9471 232.608 58.4166 232.674 58.7921C232.74 59.1583 232.815 59.4587 232.9 59.6935C232.985 59.9188 233.06 60.0831 233.126 60.1864C233.201 60.2897 233.244 60.3554 233.253 60.3835L231.996 60.8906ZM229.342 59.7216C229.577 59.7216 229.794 59.6418 229.991 59.4822C230.189 59.3226 230.358 59.116 230.5 58.8625C230.65 58.5996 230.763 58.3039 230.838 57.9753C230.923 57.6467 230.966 57.3087 230.966 56.9613V54.9333C230.871 54.9051 230.73 54.8722 230.542 54.8347C230.354 54.7971 230.184 54.7783 230.034 54.7783C229.676 54.7783 229.379 54.8394 229.144 54.9614C228.918 55.0835 228.735 55.2525 228.593 55.4684C228.452 55.6844 228.353 55.9426 228.297 56.243C228.24 56.5435 228.212 56.8721 228.212 57.2289C228.212 57.5575 228.222 57.872 228.24 58.1724C228.259 58.4729 228.306 58.7405 228.382 58.9752C228.466 59.2005 228.584 59.3836 228.735 59.5245C228.885 59.6559 229.088 59.7216 229.342 59.7216ZM235.684 58.8062C236.013 58.8062 236.262 58.9048 236.432 59.102C236.611 59.2991 236.7 59.5526 236.7 59.8625C236.7 60.1629 236.611 60.4164 236.432 60.623C236.253 60.8295 235.989 60.9328 235.641 60.9328C235.312 60.9328 235.058 60.8295 234.879 60.623C234.7 60.4164 234.61 60.1723 234.61 59.8906C234.61 59.5902 234.7 59.3367 234.879 59.1301C235.058 58.9142 235.326 58.8062 235.684 58.8062Z" fill="#161B2D"/>
<path d="M190.896 21.8364C190.896 23.3638 190.544 24.7663 189.84 26.0434C189.138 27.2955 188.058 28.3097 186.602 29.086C185.146 29.8622 183.338 30.2504 181.179 30.2504H177.187V39.7162H170.747V13.3472H181.179C183.288 13.3472 185.071 13.7103 186.527 14.4365C187.983 15.1627 189.075 16.1644 189.803 17.4415C190.531 18.7186 190.896 20.1836 190.896 21.8364ZM180.69 25.1418C181.919 25.1418 182.836 24.8539 183.438 24.278C184.041 23.7019 184.342 22.8881 184.342 21.8364C184.342 20.7846 184.041 19.9708 183.438 19.3948C182.836 18.8188 181.919 18.5308 180.69 18.5308H177.187V25.1418H180.69Z" fill="#FF4E59"/>
<path d="M200.687 22.2485C201.441 21.0966 202.383 20.1951 203.512 19.5439C204.642 18.8679 205.898 18.5298 207.279 18.5298V25.3287H205.508C203.901 25.3287 202.696 25.6793 201.893 26.3804C201.089 27.0565 200.687 28.2585 200.687 29.9865V39.7151H194.248V18.7552H200.687V22.2485Z" fill="#FF4E59"/>
<path d="M219.922 40.0166C217.864 40.0166 216.006 39.5784 214.349 38.7019C212.717 37.8255 211.424 36.5733 210.47 34.9456C209.541 33.3179 209.076 31.4147 209.076 29.236C209.076 27.0825 209.553 25.1918 210.508 23.5641C211.462 21.9113 212.767 20.6467 214.424 19.7703C216.082 18.8938 217.939 18.4556 219.998 18.4556C222.057 18.4556 223.915 18.8938 225.572 19.7703C227.229 20.6467 228.535 21.9113 229.488 23.5641C230.443 25.1918 230.92 27.0825 230.92 29.236C230.92 31.3897 230.43 33.2928 229.451 34.9456C228.497 36.5733 227.179 37.8255 225.497 38.7019C223.839 39.5784 221.982 40.0166 219.922 40.0166ZM219.922 34.4573C221.153 34.4573 222.195 34.0065 223.049 33.1051C223.928 32.2035 224.366 30.9139 224.366 29.236C224.366 27.5582 223.94 26.2686 223.086 25.3671C222.258 24.4656 221.228 24.0148 219.998 24.0148C218.743 24.0148 217.701 24.4656 216.872 25.3671C216.044 26.2436 215.63 27.5333 215.63 29.236C215.63 30.9139 216.031 32.2035 216.835 33.1051C217.663 34.0065 218.693 34.4573 219.922 34.4573Z" fill="#FF4E59"/>
</g>
<defs>
<clipPath id="clip0_1767_1698">
<rect width="238.16" height="54.4561" fill="white" transform="translate(0.663086 9.62842)"/>
</clipPath>
</defs>
</svg>
