<svg width="1082" height="945" viewBox="0 0 1082 945" fill="none" xmlns="http://www.w3.org/2000/svg">
<g opacity="0.5">
<path d="M273.463 340.186L181.33 331.658M83.9391 789.7L244.541 709.524L408.808 678.49L578.119 615.128L769.696 689.914M769.696 689.914L563.109 779.105L674.447 881.478L769.696 689.914ZM769.696 689.914L956.392 641.039L748.292 526.878L863.546 432.266L764.134 306.732L924.31 226.857" stroke="#901D78" stroke-width="1.66321"/>
<path d="M863.546 432.266L662.281 424.409L535.862 493.729L366.308 548.959L578.544 614.826L748.717 526.576M491.982 871.772L563.109 779.105" stroke="#901D78" stroke-width="1.66321"/>
<path d="M408.808 678.49L345.623 802.569L244.541 709.524L179.613 597.834L366.309 548.959L408.808 678.49ZM408.808 678.49L563.109 779.105L578.119 615.128L535.862 493.729L438.628 395.396L273.463 340.186L435.734 227.522L581.668 297.025L652.796 204.359L764.134 306.732L662.281 424.409L748.292 526.878L769.696 689.914L834.624 801.603L674.022 881.78" stroke="#901D78" stroke-width="1.66321"/>
<path d="M498.494 103.744L434.885 228.125L334.228 134.778M366.309 548.959L438.628 395.397M438.628 395.397L662.281 424.409L581.668 297.025M438.628 395.397L158.209 434.798M535.862 493.729L748.292 526.878" stroke="#901D78" stroke-width="1.66321"/>
<path d="M1025.39 319.903L764.134 306.732L581.668 297.025L438.627 395.396L435.734 227.521M435.734 227.521L173.626 214.954L273.463 340.186L158.209 434.798L366.309 548.959L244.541 709.524M435.734 227.521L652.796 204.359M345.623 802.569L563.109 779.105M859.383 115.168L763.709 307.033M748.292 526.878L1028.71 487.476" stroke="#901D78" stroke-width="1.66321"/>
<path d="M272.902 343.778C270.865 343.46 269.465 341.595 269.775 339.611C270.084 337.627 271.986 336.276 274.023 336.594C276.06 336.912 277.46 338.778 277.151 340.762C276.841 342.745 274.939 344.096 272.902 343.778Z" fill="#550055"/>
<path d="M438.067 398.988C436.03 398.671 434.63 396.805 434.939 394.821C435.249 392.837 437.151 391.486 439.188 391.804C441.225 392.122 442.625 393.988 442.315 395.972C442.006 397.956 440.104 399.306 438.067 398.988Z" fill="#550055"/>
<path d="M365.748 552.551C363.711 552.233 362.311 550.367 362.62 548.384C362.93 546.4 364.832 545.049 366.869 545.367C368.906 545.685 370.306 547.551 369.996 549.535C369.687 551.518 367.785 552.869 365.748 552.551Z" fill="#550055"/>
<path d="M243.98 713.116C241.943 712.798 240.543 710.932 240.853 708.948C241.162 706.965 243.065 705.614 245.101 705.932C247.138 706.25 248.538 708.116 248.229 710.099C247.919 712.083 246.017 713.434 243.98 713.116Z" fill="#550055"/>
<path d="M408.247 682.083C406.21 681.765 404.81 679.899 405.12 677.915C405.429 675.931 407.331 674.581 409.368 674.898C411.405 675.216 412.805 677.082 412.496 679.066C412.186 681.05 410.284 682.401 408.247 682.083Z" fill="#550055"/>
<path d="M577.559 618.72C575.522 618.402 574.122 616.536 574.431 614.552C574.741 612.568 576.643 611.218 578.68 611.536C580.717 611.853 582.117 613.719 581.807 615.703C581.498 617.687 579.596 619.038 577.559 618.72Z" fill="#550055"/>
<path d="M562.549 782.697C560.512 782.379 559.112 780.513 559.421 778.53C559.731 776.546 561.633 775.195 563.67 775.513C565.707 775.831 567.107 777.697 566.797 779.681C566.488 781.664 564.586 783.015 562.549 782.697Z" fill="#550055"/>
<path d="M769.136 693.506C767.099 693.188 765.699 691.322 766.008 689.338C766.318 687.354 768.22 686.004 770.257 686.322C772.294 686.64 773.694 688.505 773.384 690.489C773.075 692.473 771.172 693.824 769.136 693.506Z" fill="#550055"/>
<path d="M747.732 530.47C745.695 530.152 744.294 528.286 744.604 526.302C744.914 524.318 746.816 522.968 748.853 523.286C750.889 523.603 752.29 525.469 751.98 527.453C751.671 529.437 749.768 530.788 747.732 530.47Z" fill="#550055"/>
<path d="M763.148 310.626C761.111 310.308 759.711 308.442 760.021 306.458C760.33 304.474 762.232 303.124 764.269 303.441C766.306 303.759 767.706 305.625 767.397 307.609C767.087 309.593 765.185 310.944 763.148 310.626Z" fill="#550055"/>
<path d="M581.108 300.617C579.071 300.3 577.671 298.434 577.98 296.45C578.29 294.466 580.192 293.115 582.229 293.433C584.266 293.751 585.666 295.617 585.356 297.601C585.047 299.585 583.144 300.935 581.108 300.617Z" fill="#550055"/>
<path d="M434.749 231.415C432.712 231.097 431.312 229.231 431.622 227.248C431.931 225.264 433.833 223.913 435.87 224.231C437.907 224.549 439.307 226.415 438.998 228.399C438.688 230.382 436.786 231.733 434.749 231.415Z" fill="#550055"/>
<path d="M661.72 428.001C659.683 427.683 658.283 425.817 658.593 423.834C658.902 421.85 660.804 420.499 662.841 420.817C664.878 421.135 666.278 423.001 665.969 424.984C665.659 426.968 663.757 428.319 661.72 428.001Z" fill="#550055"/>
<path d="M535.302 497.321C533.265 497.003 531.864 495.137 532.174 493.154C532.484 491.17 534.386 489.819 536.423 490.137C538.459 490.455 539.86 492.321 539.55 494.305C539.241 496.288 537.338 497.639 535.302 497.321Z" fill="#550055"/>
</g>
</svg>
