<svg width="144" height="144" viewBox="0 0 144 144" fill="none" xmlns="http://www.w3.org/2000/svg">
<g clip-path="url(#clip0_191_112)">
<path fill-rule="evenodd" clip-rule="evenodd" d="M64.4038 55.6125C61.7848 53.1939 58.4013 51.8139 54.1728 51.9761C41.0922 52.4784 33.7646 60.7804 30.2556 71.9235C25.1323 88.1946 28.2789 110.594 33.1192 122.551C33.3478 123.118 33.9929 123.389 34.5567 123.16C35.1233 122.931 35.3974 122.287 35.1688 121.72C30.4701 110.116 27.3931 88.3776 32.3641 72.586C35.5864 62.3545 42.2442 54.6461 54.2585 54.1865C57.8341 54.0471 60.6855 55.2212 62.9052 57.2605C61.5948 58.7316 60.3433 60.2203 59.154 61.7247C55.8721 65.8782 49.4574 78.0885 48.2279 87.9438C47.3479 95.0137 49.1295 100.866 55.8616 102.369C59.6037 103.203 62.8748 101.563 65.4459 98.2924C68.9833 93.7975 71.1881 86.1029 71.4637 78.2685C71.6942 71.7457 70.5942 65.1387 67.9143 60.2168C67.3231 59.1363 66.6607 58.1328 65.919 57.2273C84.4797 37.1699 113.566 21.3636 140.126 18.2908C140.731 18.2185 141.167 17.6725 141.096 17.0649C141.027 16.458 140.477 16.0236 139.873 16.0931C112.88 19.2181 83.3221 35.2424 64.4038 55.6125ZM64.4102 58.8929C63.1818 60.2782 62.0069 61.6797 60.8888 63.0956C57.7451 67.0768 51.6003 78.7739 50.4228 88.2166C49.6993 94.0114 50.826 98.98 56.3435 100.212C59.2415 100.857 61.716 99.4572 63.7097 96.9269C65.8999 94.1412 67.504 90.026 68.4187 85.4383C69.8073 78.4733 69.5975 70.419 67.2792 64.173C66.5458 62.1939 65.5962 60.3991 64.4102 58.8929Z" fill="#901D78" fill-opacity="0.72"/>
<path fill-rule="evenodd" clip-rule="evenodd" d="M112.138 48.5636C117.466 36.5001 129.081 25.1485 140.299 18.0862C140.815 17.7615 140.969 17.0784 140.645 16.5624C140.32 16.0465 139.637 15.8893 139.121 16.2141C127.552 23.4957 115.61 35.2338 110.116 47.6699C109.87 48.2263 110.123 48.8796 110.682 49.1265C111.239 49.3729 111.892 49.12 112.138 48.5636Z" fill="#901D78" fill-opacity="0.72"/>
<path fill-rule="evenodd" clip-rule="evenodd" d="M139.04 15.9531C128.466 18.9091 114.099 16.0737 104.433 10.7989C103.896 10.5059 103.223 10.7019 102.933 11.2387C102.64 11.7748 102.836 12.4454 103.373 12.7384C113.5 18.2641 128.557 21.1783 139.635 18.0816C140.223 17.9187 140.567 17.3062 140.404 16.7187C140.238 16.1306 139.628 15.7875 139.04 15.9531Z" fill="#901D78" fill-opacity="0.72"/>
</g>
<defs>
<clipPath id="clip0_191_112">
<rect width="130" height="130" fill="white" transform="translate(14.729) rotate(6.50559)"/>
</clipPath>
</defs>
</svg>
