<svg width="105" height="161" viewBox="0 0 105 161" fill="none" xmlns="http://www.w3.org/2000/svg">
<g clip-path="url(#clip0_275_21356)">
<path d="M75.1588 0.194296C75.0553 0.195403 74.9615 0.289744 74.9572 0.523192C74.6196 0.506048 74.3978 0.813293 74.08 0.899359C73.7821 0.999461 73.6443 1.36081 73.2749 1.23995C73.1258 1.50969 73.023 1.8373 73.3188 2.04602C73.4155 2.30155 72.8156 2.25114 72.8327 2.67346C73.11 2.77304 72.6637 3.18273 72.6001 3.40713C72.3001 3.21246 72.1275 3.58294 72.3156 3.89724C72.6839 4.15232 72.3596 4.39962 72.0668 4.32615C71.7655 4.01309 71.4932 4.34885 71.5558 4.69112C71.406 4.90137 71.1253 5.14608 71.1344 5.44022C71.275 5.70589 70.8478 5.8357 70.6325 5.97238C70.6241 5.92699 70.6001 5.88414 70.556 5.85321C70.4557 5.78282 70.3118 5.92367 70.1765 5.87087C70.0413 5.81808 69.8186 5.99407 69.7707 6.12165C69.7227 6.24923 70.1634 6.65818 70.1677 6.76377C70.172 6.86936 70.0367 7.0586 69.8883 7.0454C69.74 7.0322 69.6614 7.05428 69.5567 7.13347C69.452 7.21266 69.173 7.15109 69.0595 7.10709C68.9461 7.0631 68.6536 6.8958 68.5663 6.97499C68.5719 6.75912 68.4689 6.58406 68.325 6.58365C68.1156 6.70656 68.4478 7.19042 67.8811 6.91205C67.4809 6.98617 67.7184 6.38642 67.3716 6.36745C67.1872 6.47096 66.6874 6.28765 66.6234 6.59161C66.5709 6.9459 66.2291 7.0537 65.9442 7.01753C65.8207 7.17308 65.7033 7.27251 65.7897 7.36583C65.8761 7.45916 65.9439 7.50289 65.8699 7.58377C65.7958 7.66465 65.4874 7.81386 65.5861 7.91963C65.6849 8.0254 66.049 8.07512 66.2094 8.08135C66.3698 8.08757 66.6095 8.04191 66.6728 8.07711C66.7361 8.1123 66.7339 8.40491 66.6728 8.5105C66.6117 8.61608 66.5243 8.64693 66.4152 8.65131C66.3061 8.65569 66.2146 8.68642 66.2538 8.8272C66.2931 8.96798 66.4327 9.09551 66.376 9.14391C66.3192 9.1923 66.1621 9.41237 66.2625 9.48276C66.3127 9.6855 66.2957 9.80816 66.2365 9.90918C65.7328 9.8449 65.8851 10.2073 65.8111 10.4779C65.8558 10.9358 65.8649 11.3881 65.7741 11.8537C65.6077 12.2427 65.9713 12.2833 65.7988 12.6943C65.5802 12.813 65.2503 12.7436 65.182 13.1143C64.9689 13.3517 64.652 13.2002 64.3339 13.1539C63.8715 13.1013 63.9345 13.5737 63.6137 13.4716C63.2148 13.3114 63.31 13.8039 63.0842 13.8248C62.819 13.7264 62.4297 13.7348 62.4416 13.3815C62.39 13.0445 61.9208 13.0867 61.7147 13.1738C61.7045 13.4684 61.6372 13.8589 61.678 14.0965C62.0101 14.0239 62.266 14.2452 62.4784 14.4291C62.6849 14.6131 62.9567 14.8408 62.6566 15.0897C62.695 15.4681 62.2729 15.4812 62.1799 15.7368C61.8458 15.6573 61.7757 16.0596 61.4492 15.8221C61.1231 15.6116 60.9518 16.1563 61.2511 16.2261C60.9648 16.5701 61.618 16.7902 61.2711 16.9454C60.8507 17.0421 60.7437 17.0959 60.8211 17.4835C60.5275 17.6382 60.612 17.8906 60.5588 18.2269C60.4045 18.2981 60.2602 17.9142 60.0352 18.0261C59.8074 18.0771 59.875 17.674 59.7931 17.5218C59.7558 17.1838 59.3573 17.2896 59.1765 17.0879C59.1775 16.8741 59.1431 16.6651 59.0897 16.4588C58.9373 16.389 58.7801 16.0045 58.6581 16.3025C58.4424 16.5961 58.5518 17.0183 58.3329 17.3183C58.2402 17.5355 58.0086 17.7604 57.7627 17.6773C57.7422 17.3738 57.7578 17.0649 57.7141 16.7648C57.4717 16.5352 57.9761 16.4091 57.7484 16.3152C57.4029 16.2408 57.0556 16.4499 56.7044 16.3871C56.7196 16.7264 56.763 17.0688 56.7044 17.4064C56.4179 17.3883 56.1242 17.3822 55.8433 17.4462C55.8423 17.7654 55.7831 18.0812 55.8023 18.4C55.9353 18.6706 55.8661 18.7313 55.5605 18.7292C55.3672 18.7807 55.0752 18.7258 55.0006 18.9028C54.6678 18.8896 54.9496 19.2292 54.5816 19.0551C54.3895 19.0903 54.4932 19.4332 54.3981 19.5885C54.3057 19.7581 54.3131 20.0641 54.0447 20.0114C53.6101 20.0221 53.2006 20.1591 52.7696 20.1911C52.6129 20.2546 52.2231 20.0612 52.2714 20.3354C52.2533 20.7039 52.3605 21.0488 52.4473 21.4002C52.5795 21.5673 52.9649 21.4388 53.0079 21.7296C53.1271 21.9315 53.0718 22.1133 52.8194 22.1144C52.5369 22.0842 52.4953 22.3592 52.5455 22.5707C52.6963 22.6765 52.9336 22.4705 53.1251 22.5461C53.4452 22.565 53.0885 22.8827 52.9341 22.924C52.7368 23.0966 52.4877 23.1188 52.2418 23.1484C52.2331 23.3727 52.2751 23.5943 52.2936 23.8171C52.2366 24.1423 52.6064 23.9046 52.7893 23.946C52.9929 23.9221 53.3521 23.876 53.1597 24.1799C53.1793 24.5756 53.0577 24.9551 52.9684 25.3382L53.8816 25.4551C54.1329 25.4347 54.0626 25.7977 54.0899 25.9754C53.7129 26.0846 53.5194 26.457 53.4185 26.8115C53.1921 26.8227 52.9661 26.8635 52.7392 26.8434C52.718 26.6261 52.7113 26.4061 52.6279 26.2015C52.628 25.907 52.4087 25.8677 52.1739 25.9686C51.8662 25.9804 51.7991 26.1261 51.944 26.3655C51.7452 26.4555 51.4618 26.4271 51.2351 26.3876C50.9462 26.4586 50.9245 26.2388 50.9054 26.0037C50.9239 25.7104 50.6643 25.7152 50.4504 25.7445C50.2995 25.6799 50.3861 25.4023 50.1983 25.3606C49.8943 25.3365 49.9645 25.6676 49.6996 25.6504C49.3825 25.7595 49.0195 25.6526 48.7264 25.8258C48.4888 25.9136 48.6102 26.185 48.6184 26.3742C48.6413 26.5786 48.7311 26.747 48.8404 26.8359C48.7483 27.0498 48.6244 27.2584 48.3795 27.0825C48.4015 26.7662 48.3904 26.4502 48.3637 26.1346C48.0648 26.0201 47.7631 25.8962 47.5388 25.6572C47.3918 25.4347 47.126 25.5989 46.9316 25.647C46.6855 25.7525 46.7398 25.9374 46.7118 26.0928C46.581 26.2115 46.5215 26.4343 46.2701 26.2622C46.2459 26.1906 46.1434 26.0047 46.1457 25.9234C46.1481 25.842 46.054 25.7605 45.9471 25.6989C45.8402 25.6374 45.5589 25.7693 45.4694 25.7935C45.38 25.8177 45.153 25.7342 44.9806 25.7452C44.8083 25.7562 44.7823 25.8948 44.7299 25.9674C44.6776 26.04 44.529 26.1369 44.5116 26.1391C44.4941 26.1412 43.9772 26.1478 43.9248 26.1478C43.8724 26.1478 43.6565 26.2379 43.5692 26.2951C43.482 26.3522 43.1024 26.4777 43.0457 26.4667C42.9889 26.4557 42.8361 26.3302 42.7881 26.251C42.7401 26.1718 42.6289 26.0005 42.5482 25.9433C42.4675 25.8861 42.2929 25.8574 42.2275 25.8112C42.162 25.765 42.1163 25.5241 42.1256 25.4805C42.1348 25.437 42.2089 25.3249 42.2428 25.2409C42.2767 25.1569 42.215 24.7277 42.1934 24.622C42.1718 24.5162 42.1254 24.4634 42.1162 24.398C42.1069 24.3327 42.0022 24.1989 41.922 24.1896C41.8418 24.1802 41.783 24.2609 41.7429 24.3294C41.7027 24.3978 41.7644 24.6685 41.7429 24.7245C41.7212 24.7805 41.638 24.8179 41.5886 24.8707C41.5393 24.9236 41.5208 24.9796 41.4838 25.02C41.4468 25.0605 41.3603 24.9424 41.3108 24.8693C41.2613 24.7961 41.3511 24.5598 41.2523 24.454C41.1536 24.3483 40.7988 24.1459 40.731 24.1179C40.6631 24.0899 40.5027 24.1739 40.4781 24.2734C40.4534 24.373 40.4415 24.6055 40.4415 24.6055C40.4415 24.6055 40.3547 24.8553 40.3917 24.9611C40.4287 25.0668 40.4133 25.2938 40.367 25.3529C40.3207 25.412 39.9658 25.4307 39.8671 25.3902C39.7684 25.3498 39.5185 25.174 39.4351 25.0046C39.3516 24.8352 39.3055 24.5909 39.2623 24.5473C39.2191 24.5038 39.1382 24.5579 39.0926 24.5038C39.047 24.4497 38.8241 24.4445 38.7439 24.3418C38.6637 24.2392 38.559 24.1614 38.4634 24.1926C38.3677 24.2237 38.3327 24.303 38.2689 24.3264C38.2052 24.3498 38.0622 24.4477 37.9573 24.4943C37.8524 24.541 37.5808 24.4694 37.4821 24.3543C37.3834 24.2392 37.2111 23.7981 37.2477 23.695C37.2843 23.5918 37.2692 23.4118 37.1951 23.3464C37.1211 23.2811 36.8866 23.2875 36.8341 23.2875C36.7817 23.2875 36.714 23.1629 36.6091 23.0384C36.5042 22.914 36.285 22.911 36.1771 22.8145C36.149 23.102 35.9593 23.3604 35.8647 23.5985C35.7286 23.8029 35.8166 24.1443 35.6214 24.2829C35.5825 24.4512 35.824 24.7159 35.7105 24.9481C35.4024 24.9087 35.1726 25.2532 34.8496 25.1551C34.8917 25.3994 34.9337 25.6435 34.9759 25.8878C35.1604 25.9652 35.406 26.092 35.6473 26.1027C35.787 26.4043 35.6502 26.7057 35.5 26.9723C35.5573 27.1485 35.9699 27.1359 36.0029 27.4014C36.0789 27.7056 36.1661 27.7968 36.5047 27.7634C36.8206 27.7133 36.7051 28.1576 36.7468 28.3558C36.738 28.6966 36.9967 29.1789 36.5985 29.3833C36.3574 29.5152 36.3249 29.7595 36.0542 29.7691C35.9663 29.957 35.9702 30.2426 36.1368 30.4187C36.3276 30.5673 36.438 30.8613 36.5635 30.9847C36.5658 31.2528 36.5236 31.5695 36.8914 31.4362C37.1624 31.3646 37.0962 31.8178 37.1408 31.994C37.1514 32.1964 37.347 32.5996 37.0315 32.6411C36.682 32.5748 36.46 32.9387 36.3579 33.2305C36.5287 33.4503 36.8032 33.3237 37.0135 33.2464C37.0854 33.7127 36.8977 34.1895 36.9536 34.6496C37.2065 34.7831 37.1501 35.1187 36.824 35.0621C36.5979 35.0659 36.3653 35.3829 36.2553 35.0302C36.1852 34.7305 35.8077 34.8863 35.5918 34.7914C35.5848 34.5312 35.5696 34.2712 35.5681 34.0109C35.268 33.971 34.949 33.8593 34.6519 33.9393C34.619 34.2103 34.6558 34.4837 34.6548 34.7558C34.7304 35.0816 34.2533 34.8337 34.0624 34.9389C33.8049 34.7815 33.6469 34.9344 33.4892 35.1464C33.3222 35.3269 33.1288 35.3182 32.9002 35.4022C32.8292 35.3058 32.891 34.9311 32.725 34.7817C32.5769 34.5836 32.2885 34.5281 32.1669 34.4486C31.8986 34.4659 31.6786 34.5711 31.5599 34.8165C31.388 35.0735 31.1197 34.7149 30.8838 34.72C30.6096 34.5493 30.341 34.7347 30.0708 34.8153C29.8536 34.9484 29.7416 35.1792 29.4547 35.1894C29.0683 35.1432 28.675 35.1399 28.2859 35.1496C27.8298 35.132 28.0548 36.0361 28.1704 36.3177C28.2965 36.7553 27.826 37.5226 27.3011 37.2569C26.8131 37.2168 26.8942 38.094 26.25 37.799C25.3893 38.0916 26.0411 37.1759 25.794 37.076C25.4634 37.3727 24.5628 37.2053 24.663 36.659C24.44 36.3793 24.1546 36.1417 23.7315 36.0781C23.6191 35.6743 23.7617 34.9792 23.1406 35.433C22.7737 35.3108 22.233 35.9633 22.1726 35.6139C22.0553 35.2256 21.3485 35.3548 21.1456 35.739C20.8044 35.3861 20.4806 35.8533 20.2769 35.5798C19.7337 35.2453 19.6914 36.0015 20.1821 36.1052C20.6169 36.2336 20.9284 36.5478 20.5424 36.9342C20.0738 36.782 20.0054 37.2298 19.5914 37.3701C19.2564 37.6767 19.6078 38.3585 19.5265 38.8212C19.8206 39.504 19.5043 39.5152 18.8472 39.4599C18.2312 39.2091 18.0583 39.7259 17.5212 39.7716C17.0845 39.9925 16.5431 39.8188 16.2725 40.1271C15.8191 40.241 15.8717 40.8557 15.3353 40.8125C15.1803 40.7536 14.8277 40.7904 14.7441 40.8046C14.4325 40.8573 14.4849 41.2274 14.282 41.4492C14.1704 41.7005 13.5355 41.7287 13.5062 42.2202C13.7653 42.2232 13.753 42.2761 13.8023 42.357C13.8517 42.4379 13.9012 42.5933 14.0061 42.6182C14.111 42.6431 14.2467 42.5995 14.3454 42.7053C14.4441 42.8111 14.6847 42.7988 14.6847 42.9543C14.6847 43.1099 14.5552 43.228 14.4256 43.1969C14.296 43.1658 14.2036 43.1409 14.1048 43.1845C14.0061 43.228 13.8702 43.3151 13.7345 43.1845C13.5987 43.0538 13.5409 43.0372 13.4798 43.0768C13.4187 43.1163 13.3797 43.4904 13.4102 43.6092C13.3913 43.7268 13.0748 43.9768 12.9313 43.9259C12.7618 43.8342 12.394 44.4364 12.031 44.3242C12.0183 44.6265 11.2545 44.5446 11.2826 44.1607C11.888 43.6641 10.9669 43.7087 11.0736 43.278C11.2611 42.5281 10.8215 42.6596 10.2352 42.6784C9.83221 42.954 9.53799 42.5243 9.47396 42.1393C9.07468 41.7853 8.95689 42.6946 9.24325 42.9735C9.48251 43.6144 8.46724 43.1619 8.32759 43.6495C8.13492 43.911 7.42305 43.8419 7.57897 44.3274C7.49542 44.6181 7.47859 45.4896 6.92856 44.8576C6.47133 44.8832 7.14351 44.2028 6.55203 44.5033C6.18903 44.6417 5.59317 44.3471 5.8192 45.126C6.02422 45.7332 5.405 45.8513 5.49103 45.1763C5.13329 44.8268 4.99951 45.4074 4.9065 44.7275C4.28753 44.7447 4.94885 45.3202 4.97781 45.5823C4.84064 45.8657 3.83871 45.6612 4.46434 46.0761C4.75451 46.6167 4.86258 45.8879 5.03456 45.6542C5.61575 45.628 4.97972 46.4284 5.23343 46.6949C5.48022 46.7926 6.07825 46.8091 6.18611 46.984C6.42791 47.316 6.02515 47.6151 6.26112 47.9751C6.35974 48.0347 7.22081 47.921 6.71734 48.4921C6.66509 49.3293 6.50679 48.4862 6.21769 48.2821C6.01181 48.6341 5.76746 48.5663 6.03609 49.0705C5.90916 49.322 5.95387 49.3881 5.91765 49.7236C5.8933 49.917 6.30829 49.934 6.05854 50.1498C6.40633 50.2135 6.47302 50.6805 6.02817 50.7747C5.81135 51.3438 6.37335 51.058 6.56533 50.9976C6.55406 50.5121 6.50017 50.7328 7.06597 50.5881C7.44555 50.7207 7.53908 51.1106 8.09144 50.8999C7.93209 51.4649 8.48725 51.4659 8.76184 51.5888C9.12102 51.914 9.51652 51.5343 9.79569 51.8978C10.2026 52.1471 9.98916 52.5912 10.2021 52.8961C9.91523 53.0609 9.7552 53.4627 9.72093 53.8878C9.4614 54.053 9.96944 54.5484 9.8327 54.9429C9.75122 55.6207 9.34049 55.2292 8.99008 54.9956C8.59579 54.9463 8.18618 54.5989 7.9582 55.0656C7.59787 55.2013 7.43918 55.3029 7.02946 55.3265C6.74794 55.8925 7.13944 55.725 7.19428 56.0833C7.31711 56.0327 7.44551 56.0385 7.56834 56.0441C7.69117 56.0497 7.63544 55.9258 7.8141 55.9202C7.99276 55.9145 7.91457 56.1509 8.0374 56.0383C8.16023 55.9258 8.17686 55.7512 8.25503 55.8413C8.33319 55.9314 8.37802 56.044 8.48968 55.999C8.60134 55.954 8.7465 55.8694 8.86374 55.9595C8.98099 56.0495 9.1428 56.0215 9.23213 56.0722C9.32146 56.1228 9.22659 56.2523 9.35501 56.2354C9.19524 56.7957 8.92938 57.0641 8.78281 57.3566C8.71883 57.8363 8.58803 58.3615 8.21802 58.7501C8.06102 59.0824 7.23732 59.5936 7.58413 59.8169C7.46187 60.2249 8.02185 60.6583 7.73687 60.8548C7.22074 61.0084 7.42053 60.2856 7.03612 60.0577C6.99186 59.7831 6.74343 60.6072 6.52585 60.7566C6.01008 61.0715 7.2069 60.8219 7.35516 61.0273C7.43958 61.3564 6.53295 61.5805 6.99985 61.8077C7.12132 62.2702 6.83949 62.6849 6.45159 62.9076C5.9789 62.6363 5.93121 62.9202 5.6208 63.18C5.28964 63.7791 4.78921 63.0605 4.5038 63.289C4.13554 63.6272 3.61094 63.1481 3.84845 62.7469C4.15757 62.1438 3.18821 62.3827 3.31129 62.8431C3.16567 63.5431 2.11157 62.8575 2.05537 63.5838C1.75771 63.7144 1.25172 63.8602 1.48663 64.165C1.79068 64.4569 1.46127 65.1188 0.975621 65.0651C0.224369 64.9003 0.905045 65.5333 1.26554 65.5427C1.34803 65.5408 1.42876 65.5611 1.50809 65.5815C1.70801 65.6489 1.91212 65.5191 2.11976 65.5758C2.16083 65.4421 2.34515 65.5546 2.36848 65.4586C2.3661 65.2315 2.40849 65.0499 2.59129 64.915C2.68565 64.7461 3.07185 64.8804 2.87678 65.0215C2.79124 65.1722 2.99021 65.2527 3.1213 65.2633C3.29646 65.256 3.22419 65.3927 3.21999 65.487C3.27952 65.6378 3.57239 65.5626 3.63476 65.4529C3.46874 65.3581 3.60096 65.2577 3.7083 65.177C3.78407 65.2649 3.85865 65.2794 3.93999 65.1842C4.11546 65.2187 4.28235 65.4509 4.28321 65.6477C4.33067 65.8344 4.26115 65.9937 4.19413 66.1582C4.34937 66.1355 4.5461 66.2129 4.54944 66.411C4.55675 66.5751 4.45116 66.7267 4.48184 66.8991C4.4317 67.0424 4.20965 67.0983 4.30073 67.289C4.1307 67.42 4.29366 67.5859 4.44828 67.6189C4.54443 67.541 4.61334 67.6137 4.63062 67.7311C4.78707 67.8877 4.92535 68.0689 4.96422 68.2993C5.06241 68.424 4.89769 68.4961 4.91462 68.5929C4.89882 68.6433 4.88306 68.6937 4.86726 68.7441C4.64671 68.8858 4.26669 68.9729 4.27483 69.2937C4.50347 69.6388 4.76329 69.9737 4.88305 70.3769C4.86901 70.572 4.88639 70.6426 4.72489 70.8227C4.71539 71.0799 5.01304 71.2519 4.90279 71.5171C4.82214 71.7231 5.04365 71.8691 5.23046 71.8258C5.46215 71.783 5.59431 72.0088 5.80044 72.0722C6.12989 72.1506 5.69931 72.2631 5.83448 72.4558C5.93818 72.6385 5.94263 72.8011 5.84088 72.9907C5.86127 73.1729 5.8974 73.3909 6.0326 73.5325C6.13262 73.6741 6.35932 73.8544 6.15054 74.009C6.06029 74.1931 5.80944 74.1045 5.64052 74.1192C5.44006 74.0573 5.3306 74.0618 5.16678 74.1142C5.00431 74.2446 4.80713 74.0823 4.71894 74.3528C4.62139 74.5 4.60884 74.748 4.36931 74.6948C4.25063 74.7334 4.37489 75.0811 4.52796 75.1076C4.79773 75.1851 5.08176 75.2442 5.33308 75.386C5.46987 75.503 5.48892 75.6851 5.5401 75.8512C5.72871 75.9372 5.58732 76.198 5.73873 76.3336C5.85267 76.4923 5.63391 76.6781 5.58353 76.8389C5.4814 76.9945 5.36715 77.2036 5.21168 77.2822C4.95523 77.2051 5.13822 77.5475 5.04884 77.6716C5.14761 77.8625 5.07648 77.9887 5.03031 78.1826C4.99741 78.2985 4.61733 78.4479 4.91459 78.5157C4.95985 78.7316 4.94348 78.9668 5.03302 79.1688C5.27348 79.2026 5.10604 79.4704 5.26842 79.5964C5.45105 79.78 5.19762 79.8531 5.07966 79.9619C5.03745 80.1249 5.0247 80.2842 4.82749 80.3819C4.70884 80.4909 4.62367 80.6482 4.62639 80.7647C4.48555 80.9016 4.31699 80.9334 4.57211 81.1123C4.74479 81.2292 4.63371 81.4722 4.49685 81.5031C4.46214 81.782 4.26483 81.6273 4.10231 81.641C3.87685 81.6663 4.05724 82.0233 3.79068 81.9942C3.5749 82.0029 3.48286 82.156 3.40106 82.3341C3.34381 82.5787 3.05716 82.5364 3.06179 82.3142C3.15463 82.1031 2.88679 82.0535 2.7921 81.9492C2.76995 81.7068 2.48349 81.8025 2.33168 81.8447C2.29339 82.024 2.12009 82.138 2.24927 82.3229C2.26627 82.5036 2.50174 82.6607 2.40275 82.8242C2.21258 82.8345 2.07421 82.6701 1.89396 82.6274C1.73973 82.6599 1.53251 82.4648 1.43921 82.665C1.36166 82.7703 0.90717 82.8209 0.779421 82.8533C0.815184 82.8902 0.845714 82.9311 0.843575 82.9571C0.839277 83.0099 1.00498 82.9702 1.0617 83.0362C1.11842 83.1022 1.17522 83.1858 1.16212 83.2738C1.14904 83.3618 1.05752 83.3924 1.12732 83.4452C1.19713 83.498 1.28413 83.5026 1.31904 83.6258C1.35394 83.749 1.44132 83.8854 1.46313 84.0174C1.48495 84.1494 1.39761 84.2768 1.45884 84.312C1.51992 84.3471 1.63328 84.3386 1.63328 84.3386C1.63328 84.3386 1.57661 84.1097 1.66389 84.1801C1.75115 84.2505 1.92572 84.3208 1.96935 84.2856C2.013 84.2504 2.03038 84.0481 2.11765 84.0438C2.20491 84.0394 2.43192 84.0263 2.51046 83.9647C2.589 83.9031 2.78961 83.7887 2.87688 83.7271C2.96414 83.6655 3.21296 83.7005 3.28277 83.6213C3.35258 83.5421 3.37441 83.4807 3.44858 83.4895C3.52275 83.4983 3.70581 83.5071 3.74072 83.5467C3.77563 83.5863 3.90246 83.6567 3.86755 83.6567C3.83265 83.6567 3.55326 83.6081 3.48781 83.6345C3.42236 83.6609 3.22586 83.8017 3.13423 83.8853C3.0426 83.9689 2.79411 84.0568 2.73303 84.048C2.67194 84.0392 2.62823 83.9865 2.64568 84.0261C2.6631 84.0657 2.64997 84.1801 2.58448 84.2109C2.51904 84.2418 2.47988 84.3516 2.54968 84.3736C2.61949 84.3956 2.73301 84.3958 2.73301 84.3958C2.73301 84.3958 2.68917 84.4089 2.58446 84.4177C2.47974 84.4265 2.49305 84.3078 2.44506 84.3254C2.39706 84.343 2.27492 84.3825 2.24001 84.4441C2.20511 84.5056 2.25295 84.5759 2.12207 84.5495C1.99117 84.5231 1.87771 84.4264 1.79045 84.4264C1.70318 84.4264 1.616 84.4881 1.616 84.4881C1.616 84.4881 1.75556 84.7915 1.75121 84.8707C1.74692 84.9499 1.69888 85.2713 1.64215 85.2845C1.58543 85.2977 1.47644 85.1921 1.37173 85.1964C1.26701 85.2007 0.983261 85.1875 0.991989 85.2315C1.00073 85.2755 0.996286 85.3854 1.10105 85.4074C1.20576 85.4294 1.41078 85.5218 1.42823 85.5614C1.44566 85.601 1.41515 85.698 1.41515 85.698C1.41515 85.698 1.52443 85.5924 1.55061 85.6276C1.57677 85.6628 1.629 85.7507 1.61155 85.8211C1.59408 85.8915 1.55921 85.9573 1.59847 85.9485C1.63772 85.9397 1.79923 85.8168 1.89086 85.8211C1.98249 85.8254 2.17437 85.8562 2.17437 85.8562C2.17437 85.8562 2.06538 86.0234 2.16573 86.1202C2.26608 86.217 2.41435 86.2917 2.41 86.3269C2.40571 86.3621 2.31833 86.481 2.36631 86.5426C2.41431 86.6042 2.49723 86.6966 2.51905 86.6702C2.54087 86.6438 2.51475 86.4194 2.57136 86.4282C2.62808 86.437 2.87252 86.4678 2.99033 86.569C3.10814 86.6702 3.30023 86.8374 3.31332 86.9165C3.3264 86.9957 3.27832 87.0618 3.32196 87.0882C3.3656 87.1146 3.57929 87.2597 3.60547 87.2554C3.63163 87.2511 3.63182 87.1233 3.58818 87.0661C3.54454 87.0089 3.49217 86.9078 3.53143 86.8638C3.57068 86.8198 3.5576 86.736 3.62742 86.8108C3.69723 86.8856 3.71475 86.9299 3.72784 86.9123C3.74092 86.8947 3.81951 86.8153 3.9504 86.8461C4.0813 86.8769 4.12059 86.7583 4.10314 86.7143C4.08566 86.6703 4.01121 86.6087 4.07229 86.5998C4.13338 86.591 4.45218 86.6348 4.47399 86.6568C4.49581 86.6788 4.54807 86.7627 4.66152 86.9387C4.77496 87.1147 4.93204 87.3697 4.92331 87.4049C4.91457 87.4401 4.60896 87.5895 4.60896 87.5895C4.60896 87.5895 4.89708 87.5018 4.97562 87.6338C5.05416 87.7658 5.27234 87.9327 5.30724 88.1351C5.34214 88.3375 5.17617 88.4254 5.22853 88.5486C5.28089 88.6718 5.40316 89.1824 5.38571 89.2616C5.36828 89.3408 5.39783 89.4052 5.2991 89.3989C5.20037 89.3927 5.11996 89.3243 5.11996 89.3243C5.11996 89.3243 5.20654 89.5295 5.29293 89.7162C5.29293 89.7162 5.42849 89.9528 5.50562 89.9839C5.58276 90.015 6.08275 89.9619 6.08275 89.9619C6.08275 89.9619 6.23682 89.8096 6.30162 89.7878C6.36641 89.766 6.5085 89.8002 6.5486 89.8251C6.58871 89.85 6.6473 89.903 6.6473 89.903C6.6473 89.903 6.44364 89.8687 6.38502 89.9341C6.32639 89.9994 6.18134 89.9869 6.1474 90.0087C6.11345 90.0305 5.90362 90.0491 5.89128 90.0647C5.87896 90.0802 5.79568 90.1892 5.75557 90.211C5.71547 90.2327 5.62617 90.0556 5.57989 90.0585C5.53362 90.0614 5.51179 90.0958 5.51179 90.0958L5.71239 90.4938C5.82347 90.7241 6.02107 90.9854 6.02724 91.1534C6.0334 91.3214 5.96553 91.8067 6.01492 91.8316C6.06428 91.8564 6.41584 91.9062 6.5084 91.9C6.60096 91.8938 7.05765 91.8813 7.05765 91.8813C7.05765 91.8813 6.88493 91.5579 6.88493 91.4832C6.88493 91.4086 6.86641 91.284 6.89725 91.284C6.9281 91.284 7.15633 91.2964 7.15633 91.228C7.15633 91.1596 7.06998 90.8672 7.06998 90.8672C7.06998 90.8672 7.19948 90.7367 7.30438 90.6807C7.40928 90.6247 7.52054 90.7118 7.48968 90.7677C7.45884 90.8237 7.31056 90.9356 7.27971 91.029C7.24886 91.1223 7.34755 91.315 7.3784 91.3959C7.40925 91.4768 7.48349 91.6915 7.55137 91.7723C7.61925 91.8532 7.70867 92.0555 7.69941 92.0836C7.69015 92.1115 7.70557 92.1801 7.70557 92.1801C7.70557 92.1801 7.62836 92.1706 7.59133 92.0555C7.55433 91.9404 7.46797 91.9 7.45562 91.8378C7.44331 91.7756 7.43715 91.7006 7.42478 91.6977C7.41241 91.6948 7.29205 91.6323 7.26119 91.7226C7.23035 91.8128 7.16251 91.9248 7.11314 91.9808C7.06378 92.0368 6.96189 92.1988 6.96189 92.1988L7.00506 92.3418C7.00506 92.3418 7.14717 92.3821 7.18419 92.4568C7.2212 92.5314 7.19331 92.7959 7.28585 92.911C7.37841 93.0262 7.52665 93.4802 7.58836 93.6358C7.65006 93.7913 7.6609 93.95 7.6609 93.95C7.6609 93.95 7.53425 93.9471 7.56047 93.9828C7.58669 94.0186 7.70544 93.9922 7.69002 94.0388C7.67459 94.0854 7.57429 94.1134 7.57429 94.1398C7.57429 94.1662 7.58527 94.233 7.64387 94.2316C7.70249 94.2302 7.80733 94.2052 7.84127 94.2316C7.87522 94.258 8.0387 95.139 8.08234 95.2974C8.12598 95.4558 8.21324 95.6361 8.16524 95.7505C8.11725 95.8648 8.17813 95.834 8.19561 95.8736C8.21304 95.9132 8.18257 96.1201 8.2393 96.2037C8.29602 96.2873 8.36154 96.2873 8.33972 96.3841C8.3179 96.4809 8.30917 96.6523 8.35281 96.7095C8.39645 96.7667 8.49666 96.9911 8.49666 96.9911C8.49666 96.9911 8.60591 96.9955 8.65827 97.066C8.71063 97.1364 8.74975 97.409 8.8152 97.4969C8.88065 97.5852 9.13392 97.6115 9.21246 97.5895C9.291 97.5675 9.40439 97.6247 9.44366 97.7171C9.4829 97.8095 9.65745 98.025 9.70545 98.0602C9.75345 98.0954 9.579 97.981 9.4481 97.9634C9.31719 97.9459 9.15557 98.0164 9.03776 97.9591C8.91995 97.9019 8.85477 97.6995 8.84605 97.6775C8.83731 97.6554 8.64954 97.6028 8.6452 97.5192C8.6409 97.4356 8.63211 97.1189 8.61903 97.0926C8.60595 97.0661 8.54046 97.0396 8.56228 97.1232C8.5841 97.2068 8.56658 97.5807 8.56658 97.5807C8.56658 97.5807 8.73607 97.9165 8.79161 98.0845C8.84714 98.2525 9.03244 98.5325 9.01393 98.6507C8.9954 98.7689 8.93372 98.7814 8.98924 98.8187C9.04478 98.856 9.1928 98.8808 9.21131 99.0115C9.22984 99.1421 9.10023 99.3725 9.25447 99.3725C9.40874 99.3725 9.44569 99.254 9.48271 99.3225C9.51972 99.3909 9.5999 99.6834 9.64927 99.8763C9.69863 100.069 9.79137 100.474 9.85307 100.654C9.91478 100.834 9.95794 101.432 9.95177 101.606C9.94561 101.78 10.0813 102.11 10.1553 102.284C10.2294 102.458 10.2849 102.726 10.3095 102.844C10.3342 102.962 10.3219 103.435 10.3219 103.435C10.3219 103.435 10.5133 103.727 10.5072 103.852C10.501 103.976 10.51 104.023 10.51 104.023C10.51 104.023 10.6118 103.97 10.6272 104.073C10.6427 104.175 10.6427 104.4 10.6581 104.409C10.6735 104.418 10.8001 104.403 10.8525 104.496C10.905 104.589 11.1055 104.785 11.2073 104.913C11.3092 105.04 11.3985 105.233 11.4849 105.243C11.5713 105.252 11.8276 105.215 11.8893 105.255C11.951 105.296 12.0281 105.516 12.0374 105.557C12.0423 105.578 12.0658 105.63 12.0931 105.679C12.117 105.721 12.1436 105.76 12.1637 105.775C12.2069 105.806 12.281 105.952 12.3088 106.017C12.3366 106.082 12.3921 106.356 12.4075 106.484C12.4229 106.611 12.5279 106.879 12.6389 106.978C12.75 107.078 12.8086 107.112 12.8178 107.156C12.8271 107.199 12.827 107.554 12.8672 107.679C12.9073 107.803 13.0308 108.12 13.0493 108.176C13.0678 108.232 13.1573 108.783 13.1759 108.913C13.1944 109.044 13.3008 109.846 13.3488 109.864C13.3968 109.882 13.4577 109.868 13.4621 109.948C13.4664 110.027 13.5277 110.489 13.5408 110.612C13.5539 110.735 13.6062 111.426 13.6368 111.536C13.6673 111.646 13.9117 111.905 13.9684 112.059C14.0251 112.213 14.1473 112.772 14.2171 112.944C14.2869 113.115 14.3872 114.527 14.4352 114.668C14.4832 114.809 14.6536 116.301 14.6667 116.402C14.6798 116.503 14.6273 116.732 14.6753 116.767C14.7233 116.802 14.8454 116.824 14.9065 116.903C14.9676 116.982 15.0242 117.119 15.0373 117.145C15.0504 117.172 14.9894 117.435 14.9763 117.475C14.9633 117.515 14.8237 117.431 14.815 117.352C14.8062 117.273 14.7713 116.886 14.7713 116.886C14.7713 116.886 14.7496 117.317 14.7496 117.422C14.7496 117.528 14.8979 118.047 14.8979 118.144C14.8979 118.241 14.8409 118.641 14.8453 118.729C14.8496 118.817 14.814 119.27 14.814 119.27C14.814 119.27 15.098 119.624 15.1535 119.767C15.209 119.91 15.2645 120.439 15.3385 120.607C15.4126 120.775 15.5915 121.167 15.6038 121.385C15.6161 121.603 15.8322 122.835 15.9248 122.953C16.0174 123.071 16.1839 123.612 16.1901 123.743C16.1962 123.874 16.3381 124.297 16.3566 124.465C16.3669 124.558 16.4232 124.817 16.4731 125.05C16.5129 125.236 16.5488 125.405 16.5543 125.46C16.5666 125.585 16.5712 125.69 16.6221 125.749C16.673 125.809 16.693 125.894 16.7023 125.966C16.7116 126.037 16.9484 127.589 17.0532 127.897C17.1579 128.205 17.2451 128.711 17.2451 128.742C17.2451 128.773 17.2627 128.953 17.3325 128.988C17.4023 129.024 17.6598 128.967 17.6424 128.984C17.6249 129.002 17.5943 129.314 17.5244 129.314C17.4546 129.314 17.3628 129.191 17.3628 129.191C17.3628 129.191 17.3367 129.349 17.3803 129.472C17.424 129.596 17.6814 130.59 17.6552 130.686C17.6291 130.783 17.6773 130.942 17.6992 130.942C17.721 130.942 17.8342 131.008 17.8386 130.942C17.8429 130.876 17.8603 130.704 17.7949 130.612C17.7294 130.519 17.699 130.445 17.7339 130.37C17.7688 130.295 17.616 129.996 17.616 129.996C17.616 129.996 17.8036 130.137 17.8079 130.251C17.8122 130.365 17.8996 130.744 17.9738 130.84C18.0479 130.937 18.2094 131.104 18.336 131.087C18.4625 131.069 18.5849 131.052 18.6372 131.06C18.6896 131.069 18.7373 130.946 18.842 130.937C18.9468 130.928 19.1041 130.968 19.1739 130.92C19.2437 130.871 19.309 130.713 19.4007 130.704C19.4923 130.695 19.5534 130.726 19.5534 130.726C19.5534 130.726 19.4661 130.77 19.4007 130.849C19.3352 130.928 19.2392 131.017 19.1344 131.021C19.0297 131.025 19.1084 131.184 18.9514 131.219C18.7943 131.254 18.6329 131.228 18.5674 131.223C18.502 131.219 18.4191 131.285 18.3187 131.263C18.2183 131.241 17.9476 131.245 17.9476 131.245C17.9476 131.245 18.1049 131.579 18.1092 131.645C18.1135 131.711 18.1701 131.984 18.1963 132.041C18.2225 132.099 18.3489 132.187 18.3838 132.292C18.4187 132.398 18.5062 132.763 18.5193 132.781C18.5324 132.798 18.5936 132.776 18.6372 132.882C18.6809 132.987 18.7243 133.137 18.7374 133.194C18.9776 133.093 18.909 133.006 19.0779 133.034C19.2147 132.963 19.3636 132.845 19.5344 132.79C19.7403 132.672 19.9757 132.668 20.1875 132.575C20.3339 132.503 20.5528 132.404 20.6413 132.586C20.7655 132.515 20.8293 132.709 21.0289 132.585C21.1656 132.542 21.4033 132.389 21.2162 132.252C21.3252 132.095 21.4436 132.488 21.5663 132.332C21.6216 132.458 21.5219 132.693 21.6554 132.832C21.7297 133.056 21.4243 133.103 21.3665 133.287C21.3452 133.531 21.0554 133.356 21.1197 133.6C21.1851 133.675 21.3561 133.469 21.477 133.694C21.6829 133.727 21.8545 133.856 21.5885 133.976C21.4578 134.093 21.8598 134.247 21.8767 134.038C21.994 133.928 22.17 133.992 22.3246 133.9C22.4653 133.961 22.6645 133.937 22.713 134.141C22.7764 134.308 22.6278 134.458 22.7882 134.641C22.7354 134.77 22.4489 134.437 22.4919 134.773C22.4783 134.936 22.4196 135.268 22.6582 135.263C22.8416 135.237 22.9454 135.313 23.1129 135.286C23.1702 135.078 23.3993 135.152 23.4754 135.008C23.4945 134.836 23.4792 134.635 23.3804 134.49C23.4537 134.274 23.6459 134.513 23.8021 134.496C24.0354 134.542 23.9637 134.919 24.2072 134.927C24.3743 134.915 24.5365 135.069 24.6916 134.968C24.9318 134.905 24.9331 134.881 25.0185 135.089C25.2797 135.096 25.1733 135.25 25.055 135.406C24.9345 135.536 25.0037 135.752 24.7666 135.768C24.7185 135.911 24.9696 136.037 25.036 136.179C25.1493 136.286 25.3805 136.311 25.5031 136.2C25.6287 136.064 25.7774 135.948 25.9633 136.067C26.234 136.008 26.1279 136.237 26.078 136.392C25.9712 136.621 26.3907 136.61 26.3068 136.825C26.2247 136.971 26.0794 137.186 26.3505 137.03C26.3712 137.217 26.4831 137.341 26.5915 137.483C26.6823 137.603 27.0348 137.622 26.9866 137.392C26.958 137.161 27.3091 137.346 27.2925 137.104C27.3959 136.96 27.5179 136.849 27.5941 136.694C27.6329 136.561 27.7768 136.31 27.9252 136.432C28.1164 136.489 28.1632 136.643 28.2696 136.768C28.4172 136.581 28.5759 136.774 28.6015 136.943C28.7346 137.028 28.9727 136.965 29.055 137.046C29.1672 137.32 28.8259 137.192 28.7831 137.389C28.6202 137.313 28.4465 137.256 28.2667 137.245C28.1214 137.294 28.1234 137.592 27.8748 137.5C27.6798 137.655 27.7421 137.938 27.8053 138.142C27.9066 138.254 27.8953 138.593 28.0518 138.538C28.2203 138.445 28.3671 138.612 28.5144 138.598C28.5523 138.734 28.4178 139.062 28.5869 139.058C28.7107 139.194 28.8804 139.221 29.0595 139.181C29.2306 139.196 29.3057 139.371 29.3114 139.521C29.3657 139.687 29.2487 139.928 29.3239 140.005C29.4783 139.997 29.6969 140.018 29.8083 139.887C29.9019 139.736 30.1783 139.762 30.0874 139.512C29.8931 139.297 30.2695 139.364 30.2838 139.189C30.4525 139.242 30.5839 139.045 30.6771 139.076C30.7415 139.365 30.9056 139.128 31.0578 139.069L31.1708 139.425C31.2092 139.681 31.372 139.901 31.0775 140.025C30.9299 140.207 30.5593 140.38 30.3913 140.144C30.0774 140.11 29.8466 140.068 30.0254 140.425C30.1062 140.69 29.8835 140.975 29.9704 141.212C30.1121 141.377 30.17 141.719 30.4239 141.67C30.6344 141.819 30.7476 142.016 31.0151 141.932C31.3187 142.03 31.2208 142.399 31.0768 142.594C30.8797 142.71 31.0769 143.068 31.1841 143.202C31.0962 143.47 31.635 143.605 31.2858 143.801C30.9964 144.175 31.4506 143.719 31.6399 143.874C31.9186 144.027 32.1622 143.765 32.3717 143.818C32.6572 143.911 32.782 144.171 32.8669 144.437C33.1104 144.467 33.1961 144.649 33.3325 144.835C33.5118 145.043 33.435 145.265 33.6089 145.4C33.5497 145.652 34.1097 145.666 33.8554 145.938C33.6868 146.17 34.1782 146.112 34.2171 146.348C34.2437 146.56 34.4111 146.769 34.6595 146.794C34.6963 147.115 34.9257 147.119 35.1204 147.278C35.2633 147.252 35.5374 147.192 35.7027 147.197C35.8829 147.246 36.1831 147.285 36.2108 147.483C36.4061 147.599 36.3322 147.878 36.4506 148.055C36.4871 148.26 36.6816 148.5 36.9105 148.554C37.2077 148.614 37.2067 148.192 37.4714 148.259C37.8749 148.177 37.5154 148.672 37.7675 148.714C38.1882 148.712 37.9139 148.988 38.0557 149.199C38.3398 149.21 38.5016 148.96 38.7587 148.936C38.9241 148.755 39.1985 148.854 39.4204 148.853C39.6102 148.895 39.9827 148.86 39.9929 149.111C39.9083 149.393 39.8009 149.549 39.9322 149.795C39.9185 150.036 40.3222 150.056 40.2845 150.299C40.5667 150.382 40.6498 150.61 40.5184 150.838C40.4722 151.162 40.7441 151.272 40.9939 151.341C41.0953 151.676 41.4021 151.88 41.7045 152.015C42.0385 152.086 42.399 152.246 42.7394 152.146C42.985 152.374 43.2894 152.091 43.5531 152.241C43.7472 152.377 43.9963 152.365 44.2094 152.385C44.5389 152.585 44.5971 152.21 44.8759 152.207C45.1134 152.115 45.3855 152.301 45.5404 152.006C45.807 151.924 46.0114 151.666 46.2779 151.548C46.5748 151.616 46.8435 151.487 47.0897 151.333C47.0902 151.365 47.0925 151.398 47.093 151.43C47.1127 152.069 47.1029 152.708 47.0807 153.346C47.0576 153.537 47.1295 153.718 47.1212 153.909C47.1245 154.019 47.1114 154.328 47.2468 154.388C47.3764 154.435 47.5708 154.276 47.6727 154.17C47.7745 154.065 47.8362 153.884 47.9349 153.856C48.0337 153.828 48.2219 153.732 48.3576 153.775C48.4934 153.819 48.7926 153.688 48.879 153.688C48.9654 153.688 49.2276 153.896 49.3572 153.921C49.3621 153.999 49.2314 154.13 49.3014 154.206C49.3047 154.371 49.4089 154.524 49.3653 154.688C49.316 154.815 49.3651 154.905 49.4786 154.969C49.5378 155.073 49.5103 155.23 49.6372 155.295C49.7811 155.351 49.9387 155.401 50.0964 155.407C50.2275 155.448 50.3366 155.374 50.4485 155.315C50.5982 155.305 50.7538 155.32 50.8828 155.228C51.0128 155.334 51.054 155.511 51.1428 155.649C51.2563 155.738 51.3882 155.824 51.5305 155.865C51.6467 156.104 51.6932 156.369 51.7752 156.621C51.9053 156.712 52.0779 156.703 52.1905 156.818C52.2751 156.904 52.3674 156.955 52.4874 156.917C52.6004 156.967 52.6829 156.869 52.7531 156.793C52.8094 156.656 52.9388 156.746 53.0435 156.759C53.1577 156.813 53.2548 156.79 53.3354 156.693C53.4186 156.588 53.519 156.581 53.6315 156.645C53.7606 156.563 53.9242 156.526 54.0184 156.399C54.0431 156.448 54.0678 156.498 54.0924 156.548C54.0595 156.626 53.9681 156.697 53.9801 156.801C53.9285 156.933 54.0976 156.803 54.1356 156.868C54.2047 156.984 54.3069 157.104 54.2755 157.25C54.2774 157.345 54.1737 157.358 54.1117 157.402C54.0642 157.443 54.057 157.608 53.969 157.541C53.9226 157.438 53.8634 157.53 53.8072 157.575C53.6995 157.634 53.8559 157.634 53.9079 157.657L53.8923 158.034C53.9492 158.181 54.0035 158.331 54.0815 158.469C54.1164 158.474 54.1513 158.479 54.1862 158.484C54.267 158.484 54.3234 158.551 54.3897 158.589C54.5469 158.67 54.7193 158.664 54.8904 158.68C55.2446 158.708 55.4543 158.009 55.6772 158.055C56.0099 158.025 56.2685 157.433 56.6134 157.886C57.0801 158.109 57.1989 158.596 57.2315 159.068C57.3172 159.423 57.3771 159.818 57.8217 159.819C58.1372 159.665 58.4135 160.051 58.7832 159.94C59.668 159.825 60.5692 159.876 61.4611 159.855C61.8386 159.723 62.0932 159.834 62.5118 159.893C62.8736 160.016 63.3314 159.966 63.6386 160.174C64.0541 160.301 63.8946 160.766 64.1928 160.205C64.3811 159.839 63.9727 159.608 63.8597 159.385C63.5603 159.045 63.9124 158.671 64.0492 158.35C64.2314 157.971 64.3173 157.684 64.5864 157.394C65.0368 157.201 65.0806 156.657 65.1551 156.231C65.1024 155.783 65.4952 155.648 65.8842 155.761C66.2311 155.894 66.5099 155.627 66.7301 156.073C66.9061 156.027 67.1803 155.539 67.0972 155.285C67.5197 155.365 67.8465 155.208 68.1829 155.392C68.7495 155.487 68.0177 156.333 68.4435 156.101C68.4945 155.653 69.4189 155.767 68.9779 156.128C68.6899 156.468 69.5 156.752 69.3998 157.067C69.7296 156.864 70.3125 157.59 70.2178 157.123C70.095 156.828 70.0912 156.246 70.2111 156.168C70.6136 156.339 70.7871 156.028 71.1038 155.961C71.5051 155.953 71.8386 155.786 72.2213 155.699C72.5829 155.592 73.2537 155.872 73.3033 155.322C73.496 155.104 74.0595 155.792 74.2735 155.412C74.5369 155.382 74.8309 155.935 75.1006 156.131C75.4151 156.484 75.8494 156 76.031 155.809C76.397 155.861 76.7789 155.946 77.1132 156.192C77.3864 156.419 77.3517 156.526 77.5732 156.057C77.7843 155.81 77.9368 155.462 77.9961 155.102C78.1548 154.791 78.3226 154.399 78.1775 154.143C78.3345 153.878 78.0416 153.288 78.3006 153.229C78.7631 153.55 78.7191 153.539 78.8034 152.974C78.9785 152.734 78.7103 152.04 79.1573 152.313C79.5347 152.381 79.8471 152.543 80.1874 152.315C80.5618 152.191 80.9266 152.537 81.2679 152.294C81.589 152.391 82.0065 152.125 82.3711 152.066C82.4673 151.722 82.9306 152.009 82.9499 151.495C82.9715 151.38 83.2184 150.987 83.2246 150.891C83.2307 150.795 83.5331 150.138 83.5855 150.076C83.638 150.014 83.9248 149.694 83.9988 149.61C84.0729 149.526 84.0359 149.258 84.1624 149.239C84.2889 149.221 84.5635 149.006 84.6776 148.928C84.7918 148.85 84.9245 148.424 84.9831 148.334C85.0417 148.244 85.0942 148.228 85.1837 148.231C85.2732 148.234 85.3441 147.995 85.2947 147.911C85.2454 147.827 85.0419 147.83 84.9678 147.796C84.8938 147.762 84.8814 147.653 84.8306 147.609C84.7798 147.565 84.6715 147.475 84.616 147.391C84.5604 147.307 84.6038 147.087 84.5451 146.987C84.4865 146.888 84.4371 146.95 84.3754 146.828C84.3137 146.707 84.3321 146.561 84.2303 146.492C84.1285 146.424 83.7768 146.424 83.6164 146.424C83.456 146.424 83.4189 146.377 83.3171 146.296C83.2153 146.216 82.987 146.197 82.8142 146.141C82.6415 146.085 82.3113 146.044 82.2526 146.094C82.194 146.144 82.1076 146.116 82.0027 146.026C81.8978 145.936 81.7898 146.032 81.6911 146.016C81.5923 146.001 81.5771 145.939 81.4907 145.901C81.4043 145.864 81.2963 145.967 81.2223 146.044C81.1482 146.122 81.0587 146.01 80.96 146.079C80.8612 146.147 80.7038 146.054 80.5834 146.023C80.4629 145.991 80.5094 146.079 80.4601 146.132C80.4107 146.184 80.1176 145.951 80.0497 145.942C79.9818 145.932 79.9048 145.976 79.8338 146.044C79.7629 146.113 79.6456 146.103 79.5592 146.085C79.4728 146.066 79.2999 146.132 79.195 146.135C79.0901 146.137 78.8032 146.094 78.7785 146.094C78.7538 146.094 78.7601 146.035 78.6892 145.957C78.6182 145.88 78.3591 145.917 78.2912 145.817C78.2233 145.718 78.504 145.475 78.5256 145.388C78.5472 145.301 78.4977 145.083 78.399 145.015C78.4649 144.873 78.5284 144.547 78.6847 144.458C78.7556 144.327 78.9006 144.386 79.007 144.313C79.139 144.211 79.2025 144.417 79.3248 144.437C79.4501 144.402 79.6057 144.406 79.7119 144.347C79.7761 144.242 79.7773 144.047 79.9419 144.084C80.0509 144.053 80.2568 144.118 80.2817 143.967C80.2759 143.801 80.4314 143.779 80.5533 143.728C80.6464 143.614 80.6966 143.454 80.7732 143.323C80.8359 143.212 80.8321 143.047 80.995 143.049C81.1212 142.943 81.2793 142.838 81.3229 142.667C81.3387 142.511 81.4562 142.476 81.5916 142.462C81.7782 142.357 81.721 142.102 81.8206 141.936C81.8458 141.686 81.8522 141.411 81.9773 141.192C82.1144 141.127 82.0646 140.967 81.9859 140.877C81.9321 140.686 82.1237 140.495 82.0101 140.319C82.0891 140.103 82.1204 139.875 82.1557 139.649C82.2284 139.501 82.0662 139.43 81.9864 139.332C81.8465 139.511 81.6748 139.66 81.5127 139.818C81.3495 139.788 81.1861 139.759 81.0229 139.73C81.1283 139.59 81.2591 139.476 81.3997 139.373C81.5312 139.252 81.7956 139.137 81.7101 138.918C81.5074 138.926 81.3117 138.875 81.1147 138.834C81.1146 138.756 81.119 138.599 81.0787 138.49C81.0326 138.341 81.1163 138.134 80.9519 138.05C80.9419 137.89 80.8826 137.73 80.9092 137.571C80.9397 137.448 81.0446 137.355 81.0743 137.225C81.2039 137.017 81.1489 136.768 81.1767 136.537C81.212 136.399 81.3226 136.332 81.4417 136.274C81.6096 136.19 81.4455 136.073 81.489 135.947C81.3235 135.898 81.2972 135.678 81.3388 135.533C81.3421 135.502 81.3455 135.472 81.3489 135.441C81.3249 135.314 81.417 135.296 81.5211 135.289C81.7857 135.182 82.0612 135.107 82.3351 135.028C82.4646 135.033 82.5895 135 82.7139 134.963C82.8349 134.905 82.9593 134.951 83.083 134.973C83.2194 134.972 83.2321 135.023 83.141 135.12C83.1014 135.19 83.2544 135.231 83.1676 135.339C83.1149 135.445 83.1695 135.509 83.2819 135.485C83.3735 135.531 83.4642 135.505 83.5548 135.471C83.6465 135.414 83.7821 135.527 83.8425 135.417C83.915 135.351 83.9695 135.277 83.9624 135.174C83.9943 135.112 83.9429 134.916 84.0404 134.96C84.1125 135.001 84.2676 134.983 84.2296 135.104C84.2164 135.226 84.3572 135.226 84.4349 135.183C84.5136 135.162 84.6521 135.212 84.6449 135.088C84.7017 134.969 84.6264 134.843 84.5486 134.753C84.5178 134.679 84.6482 134.604 84.6799 134.53C84.8039 134.572 84.9326 134.664 85.0668 134.625C85.1223 134.512 85.207 134.411 85.2158 134.281C85.2301 134.186 85.3666 134.164 85.3471 134.049C85.3979 133.93 85.2123 134.008 85.1606 133.946C85.0602 133.912 85.1105 133.766 85.1649 133.713C85.2341 133.622 85.3457 133.645 85.4461 133.638C85.5527 133.585 85.6919 133.582 85.7652 133.479C85.8139 133.431 85.9136 133.282 85.8138 133.258C85.6786 133.212 85.5222 133.1 85.5569 132.937C85.6497 132.811 85.7961 132.717 85.8254 132.554C85.9049 132.462 86.0173 132.335 86.1501 132.392C86.2513 132.343 86.1573 132.251 86.1005 132.194C86.0166 132.125 86.0043 132.044 86.0578 131.95C86.0306 131.789 86.2477 131.953 86.2148 131.829C86.1599 131.74 86.2007 131.648 86.2246 131.556C86.2514 131.457 86.0655 131.534 86.0058 131.48C85.9342 131.446 85.8146 131.373 85.8464 131.284C85.8383 131.173 85.9865 131.204 85.9759 131.093C86.0553 131.014 86.17 131.158 86.2412 131.086C86.2951 130.995 86.3816 131.006 86.4696 130.988C86.574 130.978 86.5765 130.821 86.6957 130.841C86.7526 130.803 86.7142 130.702 86.8084 130.653C86.9111 130.681 87.014 130.634 87.1132 130.688C87.1597 130.709 87.2122 130.693 87.2592 130.682C87.3696 130.651 87.4545 130.679 87.5709 130.651C87.5912 130.655 87.6117 130.659 87.632 130.664C87.7548 130.624 87.8892 130.615 88.0212 130.611C88.1488 130.691 88.1703 130.512 88.2344 130.436C88.3292 130.39 88.4697 130.431 88.5413 130.391C88.5363 130.231 88.6848 130.305 88.7853 130.29C88.9085 130.312 88.9105 130.108 89.0508 130.179C89.1461 130.166 89.2787 130.33 89.1315 130.347C89.0156 130.358 88.8964 130.391 88.9916 130.517C89.089 130.546 89.2439 130.514 89.3052 130.582C89.3958 130.748 89.1638 130.638 89.1712 130.801C89.0973 130.873 88.9425 130.853 88.8821 130.962C88.8969 131.121 88.7776 131.243 88.7629 131.398C88.6819 131.538 88.8446 131.556 88.9452 131.551C89.0192 131.67 89.1561 131.695 89.285 131.695C89.3378 131.573 89.3906 131.451 89.4434 131.329C89.4214 131.241 89.3025 131.162 89.2791 131.063C89.2815 130.956 89.3742 130.83 89.4856 130.846C89.6174 130.824 89.6841 130.896 89.6238 131.022C89.5506 131.187 89.761 131.07 89.8281 131.117C89.923 131.187 89.7844 131.323 89.8044 131.417C89.8461 131.554 90.0007 131.465 90.1044 131.477C90.2421 131.427 90.1951 131.641 90.2808 131.682C90.4183 131.718 90.4191 131.831 90.4064 131.953C90.3602 132.085 90.461 132.158 90.5717 132.079C90.6634 132.027 90.8033 132.132 90.8824 132.081C90.9551 131.98 90.9959 131.876 90.8553 131.816C90.7732 131.744 90.6073 131.674 90.7771 131.599C90.8368 131.505 90.9999 131.634 91.0181 131.481C91.0191 131.396 90.9776 131.205 91.0998 131.211C91.2509 131.273 91.2589 131.124 91.1891 131.027C91.1084 130.891 91.3415 130.889 91.3453 131.017C91.4551 131.07 91.6042 131.067 91.729 131.099C91.7904 131.076 91.8852 130.929 91.9711 131.058C92.0477 131.138 91.9841 131.295 92.1534 131.264C92.2658 131.269 92.4079 131.301 92.37 131.448C92.3155 131.642 92.4867 131.478 92.5845 131.515C92.6643 131.589 92.6949 131.721 92.7653 131.812C92.811 131.93 92.9305 131.951 93.0367 131.989C93.0812 132.108 93.1987 132.16 93.3153 132.182C93.5323 132.248 93.5751 132.505 93.6289 132.698C93.784 132.689 93.9489 132.69 94.0918 132.756C94.2141 132.828 94.3394 132.887 94.4802 132.916C94.5897 132.913 94.6639 132.76 94.7847 132.829C94.9068 132.801 94.9528 132.996 95.0578 132.882C95.197 132.843 95.3315 132.964 95.4378 133.048C95.609 133.047 95.7822 133.034 95.9434 133.104C96.2285 132.973 96.1816 132.583 96.2733 132.326C96.4483 131.91 96.4441 131.464 96.4129 131.021C96.39 130.701 96.7687 130.891 96.9148 130.675C97.0948 130.892 97.3807 130.857 97.6316 130.882C98.0046 131.057 97.8345 130.506 97.9422 130.472C98.175 130.634 98.5033 130.359 98.2971 130.221C98.142 130.483 97.9447 130.185 98.0752 129.977C98.1603 129.736 98.5181 130.073 98.5685 129.66C98.6353 129.402 98.787 129.268 98.7155 129.082C98.9221 128.91 99.0636 129.348 99.229 129.453C99.3285 129.6 99.6176 129.92 99.7615 129.699C99.841 129.31 100.068 129.921 100.264 129.875C100.539 130.013 100.659 129.757 100.748 129.623C101.033 129.597 100.878 129.974 100.978 130.143C101.269 130.229 101.299 130.53 101.338 130.755C101.39 130.498 101.465 130.23 101.406 129.968C101.346 129.768 101.111 129.608 100.928 129.49C100.759 129.346 100.429 129.095 100.633 128.855C100.493 128.567 100.754 128.54 100.611 128.318C100.486 127.982 100.835 128.023 101.046 128.104C101.367 128.233 101.445 128.187 101.484 127.863C101.447 127.641 101.257 127.393 101.306 127.131C101.227 126.965 101.156 126.514 101.453 126.584C101.629 126.473 101.703 126.25 101.976 126.291C102.092 126.051 102.566 126.262 102.507 125.952C102.333 125.791 102.312 125.412 102.591 125.369C102.654 125.309 103.159 125.058 102.918 125.013C102.694 125.037 102.501 124.644 102.653 124.538C102.782 124.306 103.146 124.374 103.24 124.187C103.057 123.998 103.269 123.721 103.525 123.759C103.702 123.785 104.092 123.733 103.959 123.502C103.966 123.23 103.742 123.046 103.486 123.173C103.118 122.954 103.61 122.97 103.752 122.837C103.878 122.641 104.103 122.511 103.723 122.393C103.76 122.133 103.725 121.816 103.984 121.66C104.095 121.493 104.33 121.133 104.028 121.04C103.851 120.893 103.891 120.566 103.709 120.389C103.56 120.394 103.71 120.872 103.493 120.975C103.271 120.888 102.956 120.828 102.965 121.176C102.926 121.553 102.586 121.243 102.562 121.032C102.406 120.847 102.176 120.747 101.972 120.604C101.535 120.655 101.898 120.159 101.622 120.107C101.402 120.197 101.191 120.299 100.967 120.37C100.716 120.341 100.883 119.873 100.607 119.892C100.337 119.936 100.18 120.241 99.8839 120.25C99.7729 120.023 99.5223 119.893 99.3269 119.85C99.3868 119.419 99.5121 119.691 99.6837 119.783C99.8267 119.968 100.022 119.808 100.022 119.586C99.7855 119.492 99.6924 119.295 99.439 119.237C99.2161 119.241 98.9228 119.284 99.0982 118.957C99.3522 118.615 99.5275 118.168 99.3605 117.744C99.247 117.522 99.353 117.293 99.2606 117.076C99.1961 116.824 99.262 116.596 99.3316 116.362C99.3657 116.083 99.2548 115.759 99.4896 115.552C99.3993 115.229 99.851 115.037 99.7637 114.695C99.7665 114.466 100.154 114.224 99.9478 114.031C99.8708 113.688 99.4315 113.791 99.1747 113.841C98.7335 113.958 98.3152 113.628 97.8805 113.77C97.5624 113.896 97.2126 113.824 96.8928 113.888C96.621 114.07 96.4551 113.761 96.2264 113.682C96.0095 113.676 95.9576 114.01 95.6589 113.768C95.5731 114.009 95.4501 114.251 95.2086 114.365C94.8914 114.423 95.0731 114.035 94.9998 113.877C95.059 113.67 95.409 113.527 95.3509 113.249C95.4009 112.969 95.1624 112.79 94.9009 112.856C94.6021 112.948 94.4872 112.721 94.5258 112.454C94.5777 112.129 94.1887 112.189 93.984 112.21C93.7443 112.165 93.5503 112.33 93.3207 112.247C93.0577 112.261 93.0085 112.627 92.7801 112.549C92.5852 112.451 92.7979 112.095 92.4996 112.032C92.4276 111.808 92.0185 111.814 92.3204 111.598C92.2549 111.276 92.369 111.266 92.6582 111.413C92.8413 111.489 93.1643 111.469 93.2808 111.328C93.267 111.094 93.5206 110.788 93.2287 110.643C93.12 110.483 92.8914 110.319 92.8189 110.19C92.8883 109.855 93.2547 109.798 93.4231 109.546C93.5583 109.34 93.6138 109.105 93.4572 108.893C93.2545 108.686 93.3822 108.452 93.5129 108.248C93.5705 108.037 93.4858 107.765 93.3701 107.574C93.2859 107.334 92.9671 107.483 92.7683 107.405C92.4377 107.514 92.5921 107.076 92.4125 106.943C92.1649 106.933 92.0223 106.7 91.7885 106.664C91.8078 106.911 91.9038 107.208 91.7329 107.42C91.549 107.471 91.2752 107.435 91.0776 107.365C90.9496 107.19 90.6249 107.19 90.4691 107.288C90.3972 107.589 90.2638 107.884 90.0956 108.151C90.0271 108.253 89.4085 108.288 89.6401 108.105C89.5986 107.743 89.5206 107.38 89.4913 107.014C89.4344 106.679 89.8418 106.688 90.0684 106.638C90.4139 106.633 90.2799 106.328 90.2503 106.107C90.1524 105.83 90.3345 105.588 90.3379 105.318C90.3216 105.141 89.8791 105.108 89.8296 105.342C89.7647 105.582 89.7125 105.763 89.4619 105.762C89.3096 105.963 89.1951 106.219 88.9845 106.385C88.6958 106.502 88.4994 106.225 88.2889 106.089C88.1711 105.907 88.3616 105.501 88.0089 105.665C87.6704 105.775 87.3289 105.672 86.9863 105.711C86.7527 105.747 86.6014 105.388 86.4763 105.729C86.2677 105.969 86.3402 106.45 86.6254 106.58C86.7884 106.652 86.9527 107.057 86.6875 107.12C86.9389 107.271 86.6866 107.353 86.4521 107.492C86.3734 107.781 86.1143 107.728 85.8822 107.76C85.5484 107.781 85.6202 108.061 85.7581 108.257C85.7029 108.542 85.3212 108.483 85.0978 108.524C84.8986 108.62 84.6417 108.553 84.4797 108.721C84.2085 108.864 84.2325 108.964 84.2088 109.238C84.2188 109.471 84.2261 109.709 84.2121 109.944C84.2204 110.149 83.9761 110.427 83.9254 110.17C83.8261 110.008 83.924 109.52 83.6656 109.621C83.5057 109.635 83.0835 109.913 83.1013 109.726C83.2271 109.604 83.3611 109.117 83.0687 109.244C82.6871 109.157 82.3711 109.438 82.0314 109.561C81.7334 109.614 81.8201 110.016 82.1057 109.979C82.3664 109.96 82.5675 110.245 82.2315 110.325C81.9757 110.492 81.8285 110.19 81.6864 110.025C81.3955 109.903 81.2807 110.268 81.055 110.357C80.8079 110.263 80.7049 110.52 80.5339 110.611C80.3092 110.532 80.2715 110.239 80.2025 110.032C80.0629 109.895 79.7009 109.921 79.6252 110.152C79.9891 110.328 79.9593 110.788 79.8554 111.117C79.8573 111.358 79.4345 111.442 79.4354 111.164C79.511 110.873 79.141 110.855 78.953 110.869C78.666 110.936 79.039 111.251 78.8936 111.452C78.7006 111.616 78.3673 111.529 78.1166 111.578C78.0914 111.386 77.9581 111.186 78.0295 110.996C78.3337 110.929 78.2973 110.554 78.308 110.308C78.3651 110.184 78.5123 109.899 78.3218 109.858C78.2632 109.578 78.2586 109.283 78.1402 109.022C78.182 108.864 78.4115 108.66 78.1069 108.654C77.898 108.562 77.7319 108.726 77.6596 108.911C77.5073 109.056 77.28 108.885 77.4136 108.687C77.2313 108.743 77.0397 108.659 77.2793 108.512C77.1941 108.247 77.6837 108.134 77.532 107.867C77.2789 107.936 77.0238 107.966 76.7659 107.917C76.6323 107.901 76.278 108.08 76.3457 107.827C76.2569 107.607 75.8805 107.543 75.7392 107.763C75.5234 107.859 75.3845 108.182 75.1152 108.082C75.0617 107.82 74.9621 107.571 74.8149 107.349C74.6037 107.422 74.3334 107.486 74.2622 107.731C74.0194 107.61 73.7318 107.812 73.5059 107.75C73.5224 107.566 73.6593 107.315 73.3828 107.29C73.2411 107.154 73.2165 106.891 73.2648 106.706C73.3938 106.477 73.1242 106.452 72.9589 106.46C72.8032 106.552 72.8463 106.817 72.7647 106.979C72.7596 107.107 72.4838 107.435 72.5374 107.142C72.6065 106.984 72.47 106.62 72.398 106.943C72.3886 107.114 72.2825 107.432 72.0664 107.344C71.8455 107.319 71.6931 107.241 71.8391 107.012C71.8572 106.739 71.9496 106.472 71.923 106.194C71.9464 105.97 71.6983 105.869 71.5551 106.041C71.2895 106.164 71.2722 106.519 71.4431 106.732C71.4773 106.938 71.5703 107.152 71.474 107.357C71.2676 107.331 70.9897 107.203 70.8374 107.406C70.7059 107.516 70.4302 107.606 70.7212 107.721C70.9028 107.774 71.1095 107.832 71.1613 108.019C71.3351 108.024 71.603 108.239 71.3824 108.378C71.2653 108.511 71.3015 108.677 71.3239 108.838C71.3541 109.067 71.631 109.162 71.6741 109.366C71.6516 109.529 71.6368 109.815 71.4029 109.738C71.2267 109.762 71.0287 109.699 70.8677 109.738C70.5603 109.942 70.2145 109.681 69.9096 109.597C69.718 109.648 69.5905 109.726 69.5523 109.914C69.6449 110.193 69.475 110.129 69.2624 110.112C68.986 110.167 68.9327 109.807 68.767 109.658C68.6238 109.477 68.4199 109.27 68.1723 109.388C68.1579 109.602 68.0511 109.793 68.0225 110.004C68.0556 110.301 67.8738 110.252 67.6879 110.115C67.4854 110.06 67.5394 109.854 67.475 109.705C67.4017 109.489 67.3772 109.258 67.2909 109.043C67.4024 108.943 67.4044 108.731 67.3329 108.576C67.2214 108.46 66.8453 108.504 67.0408 108.267C67.1829 108.17 67.3871 108.075 67.3788 107.865C67.4164 107.69 67.6867 107.825 67.7645 107.604C67.968 107.534 67.7892 107.203 67.9986 107.19C67.9621 106.953 68.1059 106.741 68.1171 106.505C68.2915 106.419 68.4787 106.403 68.67 106.409C68.6299 106.202 68.5897 105.995 68.5496 105.788C68.4416 105.647 68.2019 105.623 68.0828 105.475C67.9722 105.32 67.8564 105.191 67.6611 105.154C67.4282 105.101 67.454 104.906 67.4933 104.713C67.5692 104.513 67.6154 104.39 67.3667 104.315C67.213 104.174 67.096 104.043 66.8851 103.972C66.6629 103.914 66.386 103.849 66.356 103.573C66.1578 103.528 66.0786 103.434 66.1656 103.199C66.155 102.955 66.3468 102.881 66.5532 102.905C66.7206 102.846 66.9533 102.873 67.0795 102.76C67.2176 102.581 67.049 102.436 67.0667 102.252C66.9209 102.095 66.6833 102.024 66.4742 102.037C66.4807 102.02 66.4874 102.003 66.4939 101.986C66.5761 101.826 66.4885 101.645 66.4283 101.493C66.3345 101.341 66.1543 101.25 66.0577 101.087C65.9584 100.956 65.858 101.058 65.771 101.138C65.6196 101.229 65.4602 101.05 65.2958 101.056C65.2009 101.042 64.9555 101.006 65.0826 100.876C65.1472 100.697 65.129 100.485 65.2133 100.313C65.3434 100.187 65.5135 100.305 65.6656 100.319C65.8116 100.414 65.8664 100.241 65.9817 100.203C66.1361 100.178 66.3572 100.174 66.3424 99.96C66.4207 99.8596 66.2133 99.6155 66.3975 99.6226C66.4978 99.7125 66.6242 99.7702 66.7106 99.8731C66.802 99.9804 66.9635 99.9529 67.0903 99.9587C67.3018 100.038 67.5238 99.9696 67.7393 99.9525C67.8869 99.9187 68.0236 100.011 68.1723 99.9985C68.1935 100.052 68.2243 100.097 68.2066 100.157C68.1259 100.356 68.0494 100.554 68.0699 100.776C67.9597 101.008 68.1748 101.06 68.1562 101.207C68.0347 101.344 68.191 101.597 67.9581 101.69C67.8257 101.874 68.1417 101.996 68.2749 102.077C68.3333 102.308 68.0991 102.535 68.2547 102.748C68.4243 102.894 68.6981 102.764 68.8989 102.865C69.0703 102.917 69.3871 102.829 69.3255 103.104C69.4987 103.147 69.6887 103.148 69.8602 103.11C70.0592 103.052 70.276 103.045 70.486 103.041C70.669 103.167 70.5901 103.488 70.7268 103.664C70.9095 103.77 70.6704 104.099 70.9447 104.084C71.0513 104.193 71.2739 104.316 71.3713 104.171C71.5827 104.086 71.3413 103.791 71.6481 103.829C71.926 103.847 72.2 104.021 72.4846 103.914C72.7549 103.809 73.0414 103.832 73.322 103.877C73.4975 103.698 73.6446 103.452 73.8989 103.386C74.0845 103.339 74.0619 103.701 74.0171 103.837C74.1986 103.901 74.3502 103.715 74.501 103.647C74.5847 103.456 74.7651 103.344 74.9648 103.439C75.0834 103.568 75.0329 103.791 75.2099 103.901C75.3614 104.033 75.2822 104.271 75.4867 104.31C75.6364 104.358 75.9644 104.344 75.8891 104.577C75.8176 104.744 75.7374 104.918 75.7268 105.09C75.5759 105.266 76.0551 105.189 76.0954 105.334C76.0199 105.541 75.8275 105.723 75.7228 105.93C75.5419 106.09 75.7252 106.262 75.7707 106.433C76.083 106.482 76.3969 106.422 76.7101 106.411C76.8362 106.471 76.644 106.911 76.9001 106.807C77.0971 106.626 77.3704 106.546 77.5342 106.33C77.7038 106.122 77.4382 106.038 77.263 106.025C77.0925 105.955 77.182 105.668 77.1451 105.509C77.3092 105.463 77.6125 105.487 77.6287 105.266C77.5849 105.052 77.7941 104.803 77.5793 104.641C77.3044 104.462 76.9593 104.622 76.6553 104.625C76.4859 104.777 76.2797 104.742 76.3436 104.482C76.4391 104.281 76.5501 104.081 76.5842 103.853C76.3716 103.721 76.1275 103.624 75.8743 103.639C75.6749 103.584 75.4685 103.519 75.2572 103.486C75.3314 103.241 75.3887 102.985 75.5336 102.77C75.7137 102.796 75.9305 102.78 76.0249 102.604C76.0529 102.383 76.3808 102.43 76.3881 102.188C76.4229 101.97 76.5778 101.878 76.7263 101.747C76.8948 101.645 76.9506 101.38 76.7508 101.278C76.531 101.23 76.3372 101.451 76.1088 101.463C75.8966 101.473 75.8282 101.672 75.6839 101.782C75.7176 101.595 75.7325 101.406 75.7399 101.217C75.7596 101.042 76.0671 101.165 76.2057 101.048C76.4654 101.08 76.4473 100.848 76.524 100.67C76.6276 100.501 76.8 100.403 76.7264 100.165C76.9813 100.163 77.2523 99.9556 77.4804 100.157C77.7787 100.195 78.0975 100.241 78.4005 100.194C78.6972 100.271 78.9632 100.491 79.2853 100.5C79.3316 100.289 79.5524 100.121 79.4988 99.8948C79.278 99.7913 79.322 99.4957 79.2737 99.29C79.1691 99.1303 79.1021 98.9676 79.0704 98.777C79.0352 98.5948 79.2327 98.4319 79.2375 98.2378C79.2698 98.063 79.2762 97.8039 79.16 97.6912C78.9627 97.7534 78.8439 97.4274 78.7958 97.4101C78.6076 97.4745 78.4307 97.5641 78.2557 97.6582C78.0446 97.6663 77.9101 97.4919 77.946 97.275C77.8916 97.148 78.0497 96.7385 77.8461 96.8309C77.5881 97.008 77.567 96.8078 77.567 96.5742C77.4413 96.5059 77.2384 96.4094 77.0676 96.3829C76.79 96.2786 76.5015 96.4892 76.4226 96.7578C76.2427 97.076 76.5513 97.3673 76.6158 97.6728C76.5187 97.9118 76.8171 97.9551 76.9869 97.9517C77.1013 98.2158 77.0868 98.5072 77.1693 98.7802C77.286 98.9209 77.368 99.0878 77.3109 99.2815C77.1292 99.3771 76.9475 99.4728 76.7658 99.5684C76.5476 99.6235 76.4901 99.3499 76.5253 99.1862C76.5325 98.9285 76.195 98.8886 76.0404 98.7369C75.8163 98.6463 76.0805 98.414 76.0175 98.243C75.948 98.0859 76.0987 97.7911 75.9518 97.7276C75.558 97.7078 75.162 97.6492 74.7672 97.6218C74.5736 97.5274 74.3757 97.6561 74.1832 97.5852C74.2238 97.3002 74.2738 97.0124 74.2394 96.7239C74.2001 96.5494 74.314 96.2244 74.0329 96.2871C73.9035 96.4635 73.657 96.3701 73.5276 96.55C73.3809 96.7244 73.1035 96.8201 72.9016 96.6901C72.6716 96.6852 72.3928 96.786 72.1831 96.6408C72.028 96.501 71.8454 96.4351 71.6871 96.3189C71.4739 96.4067 71.4192 96.0727 71.2163 96.1644C71.1018 96.3977 70.9012 96.0516 70.7631 96.311C70.8339 96.664 70.6408 97.0297 70.3846 97.2593C70.2129 97.3642 70.3244 97.6312 70.2215 97.795C70.1024 98.0075 70.5424 97.9934 70.297 98.2303C70.3714 98.4439 70.237 98.6416 70.2575 98.8595C70.1465 99.1829 69.7418 99.1781 69.4598 99.1382C69.3151 98.9474 69.0957 98.8275 68.9939 98.6045C68.913 98.4036 68.6998 98.3936 68.5125 98.412C68.2915 98.5245 68.032 98.5066 67.8091 98.6204C67.691 98.5456 67.5903 98.5579 67.5221 98.5622C67.3508 98.3665 67.1059 98.5565 66.9038 98.5311C66.6873 98.5494 66.4534 98.595 66.2768 98.4214C66.2674 98.1986 66.1265 98.0263 66.0004 97.8559C65.873 97.5827 66.2472 97.6149 66.3866 97.4763C66.6567 97.3432 66.5548 96.968 66.3197 96.8623C66.1168 96.7925 65.889 96.8238 65.6932 96.7113C65.3577 96.6788 65.2412 96.3431 65.0682 96.104C64.8483 95.9764 64.9184 95.7299 64.9449 95.522C65.0105 95.3135 64.9132 95.002 65.0998 94.8697C65.4073 94.8967 65.5355 94.5689 65.708 94.3759C65.9396 94.4601 66.1348 94.6198 66.3636 94.7103C66.5058 94.4222 66.4041 94.0796 66.3952 93.7706C66.382 93.4873 66.7896 93.7755 66.8672 93.5191C66.9613 93.3274 67.1562 93.1337 67.1029 92.9078C66.9643 92.7889 66.6748 92.8845 66.4867 92.7914C66.0371 92.785 65.5416 92.632 65.1339 92.8909C64.9956 93.0189 64.7388 93.2205 64.5969 92.9849C64.4969 92.7645 64.4669 92.4785 64.2651 92.3105C64.1341 92.0961 63.8149 92.1032 63.7491 91.8435C63.5623 91.916 63.3451 91.826 63.1508 91.7527C62.9871 91.6164 62.9832 91.3414 62.8122 91.1882C62.7083 90.9161 62.6152 90.6228 62.5546 90.3324C62.5295 90.2451 62.2335 90.3111 62.1784 90.0624C62.2424 89.6347 62.3269 89.1943 62.3851 88.7588C62.3963 88.4809 62.439 88.2147 62.6144 87.9903C62.7224 87.681 62.8055 87.3591 62.9682 87.0683C63.1686 86.8322 62.8271 86.6408 62.8031 86.4087C62.8236 86.2237 62.5784 85.9696 62.6778 85.8517C62.9404 85.8079 63.2653 85.8686 63.4876 85.7477C63.5885 85.5242 63.9574 85.9174 63.8866 85.5559C63.7839 85.1796 64.1593 85.3904 64.2239 85.2096C64.2338 85.0043 64.0527 84.9011 64.0178 84.668C64.2337 84.5697 64.2701 84.3373 64.3031 84.1269C64.35 83.9218 64.2596 83.7337 64.2231 83.5051C63.9036 83.4593 64.2466 83.1481 64.4467 83.2451C64.5581 83.1149 64.5632 82.8383 64.5651 82.6458C64.6336 82.2786 64.5518 81.913 64.5787 81.5462C64.355 81.6125 64.0292 81.5175 63.8819 81.7283C63.7282 82.0043 63.5778 81.6647 63.4491 81.5541C63.1324 81.5955 62.8243 81.5407 62.5186 81.4586C62.2733 81.4756 62.1959 81.3015 62.0984 81.1081C62.1631 81.0611 62.1922 80.9232 62.2889 80.9633C62.2932 80.6556 62.6353 80.6607 62.7019 80.401C62.7086 80.1637 62.6573 79.8681 62.5043 79.6507C62.3377 79.4336 62.4691 79.1429 62.5487 78.9978C62.7281 78.9935 62.7699 78.7685 62.9924 78.6242C63.1941 78.6194 63.399 78.9456 63.6405 78.9682C63.9276 78.9167 64.0623 79.1866 64.2981 79.281C64.5401 79.3917 64.6745 79.6461 64.7911 79.8783C64.8518 80.2174 65.2252 79.8293 65.4415 79.9997C65.6895 79.9764 65.9204 80.0627 66.1746 80.0943C66.5217 79.9848 66.7454 80.3239 67.0347 80.4154C67.4024 80.6162 67.245 80.1029 67.6195 80.1525C67.7441 79.8932 68.0573 80.0713 68.2736 80.0649C68.4717 80.1262 68.9436 79.8862 68.814 80.2505C68.61 80.565 68.7026 80.6238 69.0504 80.6481C69.2779 80.6674 69.6466 80.8298 69.5871 80.45C69.5529 80.1518 69.8129 80.045 70.068 80.0729C70.3269 80.0628 70.3453 79.7591 70.4452 79.5668C70.6204 79.248 70.6545 78.8873 70.6683 78.5279C70.9815 78.3885 71.3337 78.1072 71.2553 77.7246C71.2398 77.5105 70.6117 77.6281 70.8289 77.3016C70.9426 77.0339 71.438 77.4351 71.3925 77.075C71.5587 76.9051 71.5163 76.6312 71.4334 76.4003C71.3521 76.1708 71.2405 75.9569 71.0784 75.7721C71.0454 75.4421 70.4113 75.739 70.5439 75.4011C70.669 75.2319 70.916 75.1183 70.9809 74.8451C71.1637 74.8503 71.6834 74.9611 71.4929 74.6612C71.2584 74.5404 70.9612 74.529 71.1536 74.2719C71.2364 73.9063 70.7954 74.1015 70.5812 74.0044C70.2387 74.0059 70.4118 73.5839 70.3426 73.3608C70.3196 73.0771 70.1067 73.0306 69.8345 73.1374C69.6608 73.1784 69.3571 73.5482 68.8907 72.969C69.0092 72.8336 69.0487 72.7421 68.8907 72.555C68.7328 72.3679 68.417 72.3162 68.3894 72.1689C68.4138 72.1377 68.3746 71.9914 68.4807 71.8957C68.5868 71.8 68.6874 71.4847 68.5646 71.4397C68.4417 71.3947 68.4584 71.456 68.3607 71.2874C68.2631 71.1188 68.3974 70.8343 68.3636 70.6908C68.3297 70.5474 68.1737 70.3644 68.0007 70.2856C67.8276 70.2068 67.6489 70.2914 67.6266 70.19C67.6042 70.0887 67.6603 69.8409 67.5933 69.7283C67.5263 69.6157 67.3028 69.2217 67.1521 69.2499C67.1001 69.2596 67.021 69.207 66.9428 69.1295C66.9987 68.775 67.3886 69.0012 67.5846 69.0476C67.8224 68.9731 68.0781 69.0053 68.3303 69.051C68.4932 68.4023 68.2347 67.7383 68.2829 67.0841C68.458 66.7455 68.3246 66.367 68.3564 66.01C68.4819 65.9092 68.8331 65.9378 69.0525 65.8346C69.3451 65.9052 69.4797 65.407 69.7027 65.5605C70.0066 65.672 70.1152 65.9938 70.3997 66.1362C70.5213 65.886 70.5542 65.6103 70.605 65.3398C70.3425 65.2122 70.1974 64.9135 69.9127 64.8134C69.6741 64.6871 69.3584 64.6399 69.622 64.3957C69.6972 64.1465 69.4642 64.059 69.393 63.874C69.1997 63.7621 68.7107 63.959 68.8122 63.6117C68.5772 63.4915 68.8786 63.169 68.9331 63.1025C68.7641 62.8966 69.0371 62.8633 69.0964 62.5527C69.2978 62.4513 69.2561 62.1126 69.1455 62.0051C69.1728 61.762 69.2845 61.3716 68.9121 61.512C68.7565 61.637 68.4575 61.4607 68.2829 61.3659C68.2645 61.35 68.061 61.257 68.0426 61.2411C68.0993 61.1443 68.2434 60.6604 68.335 60.5504C68.4266 60.4404 68.7104 60.1852 68.7845 60.0752C68.8587 59.9652 68.9109 59.7145 69.0113 59.6177C69.1117 59.5209 69.487 59.1822 69.6222 59.1075C69.7575 59.0327 69.9451 58.9314 70.1327 58.8962C70.3204 58.861 70.5734 58.7775 70.6956 58.7027C70.8177 58.6279 71.0707 58.5531 71.1841 58.5619C71.2976 58.5707 71.6118 58.4212 71.7383 58.4036C71.8648 58.386 72.4147 58.3727 72.5587 58.377C72.7027 58.3813 72.912 58.3859 73.0036 58.2979C73.0952 58.2099 73.1827 58.1836 73.2918 58.232C73.4009 58.2804 73.8896 58.4695 74.051 58.4255C74.2125 58.3815 74.4043 58.2715 74.5265 58.3374C74.6487 58.4034 74.7664 58.4739 74.8973 58.4827C75.0282 58.4916 75.5867 58.4652 75.6827 58.4696C75.7787 58.4739 76.0711 58.7203 76.1802 58.7335C76.2893 58.7467 76.5292 58.6806 76.6078 58.6718C76.6863 58.6631 76.8477 58.7509 76.935 58.7114C77.0222 58.6718 77.1882 58.5222 77.3147 58.5574C77.4412 58.5926 77.7031 58.6806 77.799 58.7246C77.895 58.7686 77.9953 58.7468 78.0695 58.8348C78.1437 58.9228 78.2834 58.8875 78.3794 58.8699C78.4754 58.8523 78.7631 58.9183 78.8766 58.9095C78.99 58.9007 79.2564 59.0284 79.3437 59.0679C79.3838 59.0861 79.4626 59.1006 79.5445 59.1152C79.584 58.94 79.5775 58.8891 79.6171 58.7139C79.6098 58.5548 79.7168 58.3296 79.5729 58.2171C79.3324 58.1092 79.4071 57.8257 79.451 57.622C79.4964 57.4457 79.5555 57.2862 79.317 57.2647C79.2652 57.1153 79.2687 56.9714 79.1465 56.8587C78.9507 56.6754 79.2129 56.4228 79.1564 56.2213C79.2465 56.1091 79.3216 56.0262 79.3244 55.822C79.4492 55.618 79.1066 55.6355 79.114 55.4682C79.1574 55.3084 79.1964 55.1134 79.3565 55.0269C79.6286 55.002 79.3382 54.8548 79.241 54.7719C79.1029 54.6577 78.8806 54.7452 79.0066 54.499C79.0047 54.2333 79.0554 53.9307 78.8985 53.6969C78.9516 53.5291 78.9549 53.337 79.0414 53.1856C79.2232 53.0461 79.1491 52.8131 79.1379 52.6171C79.0978 52.4236 79.2939 52.3356 79.4559 52.38C79.6437 52.3163 79.4819 52.0874 79.3136 52.1556C79.1693 52.2072 78.9403 52.2214 79.0202 51.9992C79.0724 51.8438 78.9324 51.6252 79.057 51.524C79.1994 51.4414 79.3278 51.331 79.3091 51.1483C79.4942 51.1154 79.7615 50.988 79.8914 51.1794C80.0878 51.3698 80.1004 51.1251 80.1481 50.9632C80.1775 50.6482 80.5216 50.5842 80.7536 50.4666C80.9126 50.471 80.9744 50.6985 81.1417 50.7264C81.3055 50.7591 81.5061 50.6589 81.3233 50.5034C81.3729 50.3399 81.4265 50.1481 81.319 49.9957C81.2209 49.8441 81.3083 49.5101 81.4579 49.3914C81.3516 49.3273 81.2188 49.2997 81.1115 49.2958C80.889 49.2369 80.8695 49.5897 80.7137 49.3978C80.6919 49.3978 80.3341 49.367 80.2708 49.2834C80.2076 49.1998 80.1289 49.1998 80.0547 49.1294C79.9805 49.059 79.7625 48.9403 79.6905 48.8699C79.6185 48.7995 79.3741 48.7159 79.1647 48.6477C78.9552 48.5796 78.846 48.6633 78.7719 48.6502C78.6977 48.637 78.4085 48.4349 78.248 48.4287C78.0876 48.4225 77.5508 48.4909 77.452 48.6029C77.3533 48.7149 76.9522 48.7584 76.8288 48.7148C76.7054 48.6713 76.3474 48.5364 76.1626 48.4039C75.9777 48.2718 75.8416 48.3854 75.6688 48.3854C75.496 48.3854 75.3725 48.2922 75.1998 48.1366C75.027 47.9811 74.7123 48.0931 74.5457 48.0185C74.379 47.9438 74.0028 47.7751 74.0028 47.7751C74.0028 47.7751 73.8414 47.5023 73.7847 47.454C73.728 47.4056 73.645 47.1152 73.6014 46.9701C73.5577 46.8249 73.2479 46.5696 73.1562 46.4822C73.2988 46.4002 73.4869 46.4121 73.5903 46.4944C73.7413 46.516 73.8328 46.4453 73.99 46.4394C74.1692 46.3954 74.4555 46.463 74.5215 46.2409C74.6221 46.1333 74.4959 45.8582 74.7124 45.9632C74.9359 45.9531 75.0886 46.1567 75.2935 46.1844C75.406 46.1593 75.6524 46.2236 75.6627 46.0916C75.8121 46.0663 75.9542 46.1763 76.114 46.1175C76.2832 46.1069 76.1721 45.8515 76.2425 45.7361C76.311 45.5758 76.4948 45.444 76.6775 45.4574C76.8094 45.3887 76.9646 45.3404 77.1152 45.3922C77.3104 45.4842 77.3442 45.2395 77.3218 45.0974C77.2838 44.9768 77.4126 44.7193 77.2514 44.6996C77.0786 44.6944 76.9772 44.6314 76.8966 44.4931C76.8879 44.3658 76.6206 44.3 76.8105 44.2332C76.9539 44.2729 77.0807 44.1506 77.2406 44.2277C77.4488 44.3105 77.5624 44.0936 77.6924 43.9742C77.8153 43.765 78.0669 43.8338 78.2665 43.8463C78.4346 43.8111 78.523 43.6752 78.3218 43.5915C78.4073 43.5008 78.525 43.47 78.4311 43.2942C78.2387 43.2916 78.1508 43.1681 78.2372 42.9877C78.3283 42.873 78.4203 42.7707 78.4642 42.6173C78.5269 42.5089 78.7141 42.3219 78.4832 42.2953C78.2302 42.1955 78.1272 42.6175 77.8811 42.5658C77.6202 42.5872 77.8976 42.3903 77.6857 42.3814C77.6486 42.2059 77.478 42.2297 77.3583 42.1341C77.2846 41.9309 77.4366 41.9091 77.6001 41.8968C77.7781 41.8949 77.9139 41.8007 78.0376 41.6801C78.1638 41.6587 78.3691 41.797 78.4333 41.6507C78.5325 41.4373 78.5021 41.1801 78.5424 40.9506C78.6136 40.7583 78.3525 40.7508 78.25 40.8215C78.108 40.7238 77.9588 40.7504 77.8523 40.884C77.7481 40.861 77.5888 40.8173 77.5083 40.7404C77.6147 40.6327 77.5418 40.532 77.5932 40.408C77.7922 40.0702 77.864 39.6541 77.7849 39.2671C77.7992 39.0315 77.9827 39.2512 78.1185 39.2298C78.2831 39.226 78.477 39.3549 78.6142 39.227C78.6062 39.0906 78.6633 38.9121 78.5883 38.8031C78.3476 38.6871 78.3989 38.3903 78.2744 38.1918C78.3428 37.8733 78.3977 37.5485 78.3341 37.2238C78.2965 37.083 78.369 36.8605 78.1718 36.8379C78.2567 36.689 78.227 36.5057 78.2554 36.3409C78.0588 36.1028 78.5445 36.1675 78.5352 35.9605C78.4434 35.8022 78.4688 35.6595 78.4526 35.442C78.3865 35.1705 78.5789 35.1789 78.7005 34.9793C78.932 34.756 78.6891 34.4202 78.8427 34.1789C78.9094 33.9761 79.3 34.0065 79.2476 33.7968C79.1042 33.6224 79.0973 33.4405 79.0963 33.2104C78.9567 33.0381 78.8788 32.8175 78.7622 32.625C78.7004 32.4224 78.8099 32.2626 78.536 32.1699C78.2913 32.0482 78.452 31.7421 78.3519 31.6318C78.1489 31.6117 77.9767 31.3059 77.7748 31.4649C77.5176 31.5061 77.3043 31.2529 77.0503 31.2076C76.9761 30.9174 76.6461 30.9572 76.4184 30.8651C76.4959 30.5565 76.1599 30.6181 76.0796 30.3767C76.052 30.2357 76.2552 30.0624 76.2186 29.85C76.2138 29.5672 76.5561 29.5304 76.7658 29.599C76.6654 29.3755 77.0562 29.1564 76.8416 29.1529C76.6519 29.1943 76.363 28.9774 76.6338 28.8489C76.8103 28.7228 76.9411 28.6293 77.1108 28.5645C77.2904 28.831 77.4463 28.6213 77.4325 28.3787C77.4057 28.0557 77.8679 28.1032 77.9507 27.8229C78.206 27.862 78.3185 27.4836 78.1204 27.3731C77.8978 27.3591 77.6066 27.3624 77.9033 27.138C77.9797 26.9235 78.1442 26.7564 78.1461 26.5257C78.1743 26.351 78.3869 26.0489 78.1499 25.9346C78.0989 25.8211 78.0487 25.3798 78.2876 25.4467C78.4282 25.4915 78.9527 25.3799 78.6755 25.5542C78.5828 25.7629 78.9427 25.8606 79.1041 25.7923C79.3346 25.8782 79.5243 25.6414 79.7597 25.6408C79.9067 25.4599 80.0605 25.2728 79.8103 25.1347C79.7096 24.9601 80.155 24.8421 80.0775 24.6394C79.9004 24.6097 79.6777 24.553 79.5223 24.4493C79.46 24.1981 79.5558 24.0251 79.7856 23.9184C79.9721 23.7608 80.1795 23.8253 80.3736 23.9309C80.5585 23.8679 80.8776 24.1037 80.95 24.0035C80.9777 23.8516 80.8597 23.4038 81.0968 23.5365C81.3383 23.5498 81.4509 23.8246 81.6946 23.7535C81.9575 23.7591 81.8181 23.418 81.821 23.2517C81.82 22.9804 82.1717 23.1451 82.3379 23.0738C82.6744 23.0325 82.4972 22.6083 82.6976 22.4394C82.9268 22.225 82.6374 22.7185 82.7055 22.8616C82.975 22.9572 83.2529 23.018 83.5351 23.0606C83.4923 22.7977 83.6993 22.5444 83.5664 22.2961C83.4534 22.3065 83.1959 22.2711 83.0571 22.1329C82.9575 21.9298 82.7848 21.8901 82.5987 21.9732C82.4212 21.8125 82.1178 22.0134 82.0114 21.7995C81.8772 21.6652 81.6343 21.7033 81.4743 21.649C81.3046 21.6257 81.487 21.258 81.3916 21.0999C81.332 20.7922 81.1717 21.1931 80.9332 21.1243C80.7321 21.1007 80.5299 21.3124 80.3679 21.2323C80.1833 21.0817 80.229 20.6555 79.9097 20.7193C79.69 20.9388 79.5601 21.2243 79.3424 21.4415C79.1174 21.492 79.1808 21.124 79.0831 20.9827C79.0264 20.7682 78.6575 20.982 78.5669 20.8387C78.4649 20.554 78.1227 20.6061 77.8876 20.5282C77.89 20.5095 77.9319 20.3324 77.9347 20.3137C78.0449 20.1493 77.7968 19.97 78.0028 19.9274C78.0427 19.804 78.0603 19.5503 78.179 19.4042C78.1247 19.2781 78.0617 19.0284 78.0115 18.8924C78.0399 18.6333 78.1646 18.3917 78.1526 18.1217C78.0899 17.9167 78.3114 17.7755 78.4914 17.7184C78.6806 17.741 78.8026 17.6064 78.9447 17.6624C79.0934 17.5246 79.1378 17.293 79.4041 17.4221C79.4941 17.2085 79.7638 17.2672 79.9173 17.1275C80.1457 17.2986 80.2192 17.0349 80.3743 16.974C80.5175 16.9058 80.6771 16.7113 80.7419 16.5421C80.8892 16.2029 80.6949 16.3287 80.4698 16.2971C80.2622 16.2293 80.1313 16.0583 79.9509 15.9829C79.7848 15.8443 79.5523 15.9572 79.3802 15.8373C79.4318 15.6158 79.4926 15.3769 79.6962 15.2482C80.0083 15.2537 79.7787 14.8525 79.94 14.8046C80.1988 14.7452 80.3153 14.8744 80.3624 15.023C80.536 14.9493 80.5008 14.6412 80.6637 14.516C80.7549 14.337 80.8005 14.266 80.8221 14.0264C80.7849 13.7466 81.0652 13.768 81.1794 13.6751C81.3172 13.8688 81.7027 13.779 81.4496 13.5905C81.2967 13.4105 81.1309 13.1559 81.2443 12.9069C81.4316 12.9977 81.6124 12.9885 81.8009 12.9949C82.0626 13.1467 82.0207 12.7514 82.0183 12.5882C82.1077 12.419 81.8597 12.0973 82.118 12.0732C82.1478 12.0712 82.2444 11.9849 82.3147 12.0072C82.3764 11.973 82.3393 11.805 82.3702 11.7552C82.401 11.7054 82.5075 11.4036 82.4689 11.3445C82.4303 11.2854 82.2946 11.2216 82.3162 11.1594C82.3377 11.0972 82.4335 10.8918 82.4042 10.7845C82.3749 10.6771 82.2498 10.7191 82.1989 10.7285C82.148 10.7378 81.9785 10.8531 81.8967 10.7924C81.8149 10.7318 81.7254 10.5747 81.6884 10.5265C81.6514 10.4782 81.5263 10.5186 81.477 10.5046C81.4276 10.4906 81.4016 10.3894 81.4109 10.3396C81.4201 10.2898 81.3968 10.2105 81.3351 10.2105C81.2734 10.2105 81.1792 10.3755 81.1283 10.4175C81.0774 10.4595 80.9896 10.4611 80.9371 10.3911C80.8847 10.3211 80.8091 9.97111 80.7535 9.9229C80.698 9.87468 80.6102 9.91663 80.567 9.91818C80.5238 9.91972 80.4589 9.90102 80.3925 9.86991C80.3689 9.68945 80.2476 9.52491 80.3755 9.28327C80.648 9.4298 80.6078 9.09542 80.8056 9.00961C81.0434 8.96376 81.3116 8.94568 81.5285 8.80535C81.6178 8.54287 81.5887 8.27884 81.5247 8.01446C81.4161 7.81785 81.4602 7.61366 81.5069 7.40195C81.633 7.13221 81.2302 7.22983 81.1363 7.01259C81.0497 6.80661 80.9321 6.59185 80.8968 6.36052C80.6354 6.37224 80.7506 5.94527 80.9994 6.10576C81.0685 5.92768 81.352 5.74693 81.1494 5.57212C81.1368 5.3792 80.858 5.20674 81.0238 5.03424C81.0824 4.79565 81.3206 4.7492 81.4532 4.58568C81.5573 4.43148 81.7813 4.21016 81.4551 4.2003C81.2403 4.20281 81.0406 4.11345 80.9125 3.9953C80.756 4.21119 80.5945 4.15204 80.4308 3.97938C80.2217 3.94865 80.054 3.83597 79.8771 3.72811C79.5446 3.38007 79.3781 3.82787 79.5591 4.14085C79.4156 4.32406 79.1081 4.65206 78.8194 4.50482C78.6411 4.76772 78.2983 4.68984 78.0572 4.50583C77.9899 4.24342 77.6481 4.09219 77.7951 3.72937C77.7372 3.33473 77.3557 3.87983 77.0843 3.77017C76.7718 3.74908 76.4961 3.61158 76.156 3.58806C75.6784 3.39694 76.2293 3.24022 76.4045 3.09421C76.5097 2.9132 76.7121 2.82132 76.8686 2.73696C77.0462 2.46204 76.5704 2.18847 77.0406 2.06598C77.3529 1.84094 77.0916 1.39474 76.7492 1.50247C76.3305 1.53743 76.1656 1.31069 76.1721 0.906877C76.0611 0.586989 76.4541 0.200034 75.9048 0.308046C75.7844 0.621155 75.5317 0.882454 75.4187 0.424479C75.3753 0.285078 75.2622 0.19319 75.1588 0.194296Z" fill="#901D78"/>
</g>
<defs>
<clipPath id="clip0_275_21356">
<rect width="103.54" height="160.282" fill="white" transform="translate(0.636719 0.194092)"/>
</clipPath>
</defs>
</svg>
