<svg width="1440" height="129" viewBox="0 0 1440 129" fill="none" xmlns="http://www.w3.org/2000/svg">
<path fill-rule="evenodd" clip-rule="evenodd" d="M0 65.7143L60 63.0952C120 60.4762 240 55.2381 360 57.8571C480 60.4762 600 70.9524 720 86.6667C840 102.381 960 123.333 1080 118.095C1200 112.857 1320 81.4286 1380 65.7143L1440 50V160H1380C1320 160 1200 160 1080 160C960 160 840 160 720 160C600 160 480 160 360 160C240 160 120 160 60 160H0V65.7143Z" fill="#F1BDE6"/>
<path fill-rule="evenodd" clip-rule="evenodd" d="M1440 101.778L1380 104.019C1320 106.259 1200 110.741 1080 117.463C960 124.185 840 133.148 720 124.185C600 115.222 480 88.3333 360 72.6481C240 56.963 120 52.4815 60 50.2407L0 48V169H60C120 169 240 169 360 169C480 169 600 169 720 169C840 169 960 169 1080 169C1200 169 1320 169 1380 169H1440V101.778Z" fill="#901D78"/>
</svg>
